<?xml version="1.0" standalone="no"?>
<!DOCTYPE svg PUBLIC "-//W3C//DTD SVG 1.1//EN" "http://www.w3.org/Graphics/SVG/1.1/DTD/svg11.dtd" >
<svg xmlns="http://www.w3.org/2000/svg">
<metadata></metadata>
<defs>
<font id="berlin_sans_fb_demibold" horiz-adv-x="1538" >
<font-face units-per-em="2048" ascent="1638" descent="-410" />
<missing-glyph horiz-adv-x="512" />
<glyph horiz-adv-x="2048" />
<glyph horiz-adv-x="2048" />
<glyph unicode="&#xd;" horiz-adv-x="2048" />
<glyph unicode=" "  horiz-adv-x="512" />
<glyph unicode="&#x09;" horiz-adv-x="512" />
<glyph unicode="&#xa0;" horiz-adv-x="512" />
<glyph unicode="!" horiz-adv-x="573" d="M109 170q0 84 52 138t136 54q83 0 135.5 -54t52.5 -138t-52 -139.5t-136 -55.5q-85 0 -136.5 55t-51.5 140zM109 852q0 41 4 122t4 122q0 45 -3 135t-3 135q0 37 18 37q28 0 84 -4t84 -4t84 4t84 4q20 0 20 -242q0 -182 -33 -342q-40 -164 -79 -327q-9 -37 -80 -37 q-81 0 -90 32q-94 321 -94 365z" />
<glyph unicode="&#x22;" horiz-adv-x="801" d="M68 1269v111q0 25 10 25q21 0 64 2t65 2t65.5 -2t65.5 -2q10 0 10 -25q0 -44 1 -133.5t1 -134.5q0 -12 -26 -98q-24 -81 -31 -98t-82 -17q-65 0 -74 21q-69 166 -69 349zM451 1112q0 45 1 134.5t1 133.5q0 25 10 25q22 0 66.5 2t66.5 2q21 0 63.5 -2t63.5 -2q10 0 10 -25 v-111q0 -181 -69 -349q-9 -21 -72 -21q-10 0 -30.5 2t-31.5 2q-15 0 -20.5 13.5t-31.5 96.5q-27 88 -27 99z" />
<glyph unicode="#" horiz-adv-x="1454" d="M80 378q0 15 6 42q7 32 8 43q0 25 4 67q6 19 27 19q52 0 142 -4q105 -4 143 -4l61 245q-46 0 -153 -6q-98 -6 -152 -6q-21 0 -21 26q0 14 5 38q7 29 8 39q1 30 4 67q6 19 26 19q62 0 165 -4q122 -4 165 -5q29 107 85 322q9 46 32 137q6 22 26 22q7 0 15 -3q19 -12 59 -33 q24 -6 64 -23q8 -5 8 -18q0 -21 -117 -406h230q54 203 83 316q9 46 31 135q7 24 27 24q6 0 14 -4q20 -11 60 -32q25 -8 61 -23q10 -7 10 -19q0 1 -116 -395q168 4 247 4q22 0 22 -21q0 -84 -18 -146q-5 -18 -18 -18q-3 0 -8 1q-41 7 -273 14l-67 -247q209 4 299 4 q22 0 22 -23q0 -89 -18 -151q-5 -18 -18 -18q1 0 -9 1q-40 7 -323 15l-78 -315q-10 -47 -35 -140q-8 -24 -27 -24q-6 0 -15 4t-52 28q-24 8 -49 16q-31 12 -31 30q0 -1 117 403h-80q-98 0 -150 -2q-35 -150 -112 -447q-7 -23 -25 -23q-7 0 -16.5 4.5t-52.5 28.5 q-25 7 -70 27q-11 7 -11 19q0 4 113 387q-36 -1 -126 -6q-81 -5 -126 -5q-22 0 -22 24zM575 539h234q23 82 63 249q-43 2 -88 2l-141 1q-37 -130 -68 -252z" />
<glyph unicode="$" horiz-adv-x="995" d="M72 865q0 133 97 235q92 97 226 123q0 -9 -3 48q-2 43 1 67q4 34 19 34h172q12 0 15 -30q3 -22 1 -61q-2 -53 -2 -46q59 -4 189 -45q149 -47 149 -81q0 -7 -6 -26q-14 -30 -37 -92q-7 -34 -25 -100q-7 -23 -24 -23q-1 0 -91 43t-147 43q-112 0 -112 -104q0 -59 104 -123 q166 -101 193 -124q104 -91 104 -218q0 -270 -334 -360q8 -159 8 -176q0 -10 -22 -12q-15 -2 -43 0q-32 3 -31 3q-13 0 -38 -3.5t-37 -3.5q-8 0 -15 3q-6 9 -6 49q0 32 4 99q-268 0 -272 37q-1 7 1 19q1 16 1 20q0 40 -7 96q-2 17 -15 63q-12 42 -12 63t23 21 q25 0 88.5 -14.5t98.5 -14.5q176 0 176 109q0 57 -101 128q-165 115 -189 139q-101 96 -101 215z" />
<glyph unicode="%" horiz-adv-x="1645" d="M31 877q0 162 104 281q109 124 268 124t268 -125q103 -119 103 -280q0 -162 -103 -280q-108 -124 -268 -124q-159 0 -268 123q-104 118 -104 281zM281 877q0 -57 32 -103q36 -51 90 -51q57 0 91 50q30 45 30 104t-30 104q-34 51 -91 51q-56 0 -91 -51q-31 -45 -31 -104z M471 25q0 16 315 614q26 47 119 280q47 111 133 336q11 32 20 32q18 0 57 -26.5t39 -43.5q0 -3 -138 -284q-146 -295 -158 -321q-136 -300 -254 -622q-12 -34 -22 -34q-14 0 -62.5 28.5t-48.5 40.5zM870 379q0 162 104 281q107 124 267 124q161 0 269 -124 q104 -118 104 -281q0 -162 -104 -280q-109 -124 -269 -124q-159 0 -267 124q-104 119 -104 280zM1120 379q0 -56 32 -102q35 -52 89 -52q57 0 91 50q30 44 30 104t-30 105q-33 51 -91 51q-57 0 -91 -52q-30 -45 -30 -104z" />
<glyph unicode="&#x26;" horiz-adv-x="1430" d="M70 344q0 169 100 281q56 62 242 182q-62 155 -62 244q0 168 95 267t264 99q145 0 228 -78q85 -81 85 -225q0 -96 -72 -180q-30 -35 -85 -76q-72 -53 -89 -67q24 -36 76 -105q28 -33 82 -100q79 101 140 144q83 58 190 58q58 0 71 -6q22 -11 22 -60q0 -117 -16 -177 q-6 -24 -50 -33q-70 -15 -95 -27q-63 -29 -106 -100q62 -102 208 -102q72 0 72 -27v-211q0 -45 -51 -45q-32 0 -96 -3t-97 -3q-122 0 -286 186q-51 -49 -162 -139q-112 -76 -268 -76q-160 0 -253 112q-87 104 -87 267zM381 379q0 -65 37 -106q38 -44 102 -44q58 0 117.5 39 t79.5 92q-45 41 -100 116q-86 116 -91 122q-58 -31 -100 -92q-45 -64 -45 -127zM584 1116q0 -87 63 -168q176 97 176 191t-110 94q-54 0 -91.5 -32t-37.5 -85z" />
<glyph unicode="'" horiz-adv-x="475" d="M78 1253v123q0 23 12 27q17 6 143 6q136 0 150 -6q18 -8 18 -180q0 -166 -73 -361q-7 -18 -23 -20q-24 -4 -65 -4q-29 0 -58 4q-43 6 -77 186q-27 143 -27 225z" />
<glyph unicode="(" horiz-adv-x="815" d="M96 532q0 171 71 370q74 206 185 327q130 140 338 225q24 10 34 10q12 0 37.5 -52.5t25.5 -67.5q0 -16 -37 -39q-93 -60 -177 -220q-51 -99 -83 -268q-29 -153 -29 -282q0 -375 94 -555q78 -151 195 -228q30 -20 30 -37q0 -16 -28 -74.5t-40 -58.5q-8 0 -36 10 q-204 80 -340 228q-110 120 -178 335q-62 197 -62 377z" />
<glyph unicode=")" horiz-adv-x="815" d="M28 1344q0 15 25.5 67.5t37.5 52.5q10 0 34 -10q187 -76 338 -225q115 -113 188 -325q68 -196 68 -372q0 -184 -59 -378q-68 -219 -181 -334q-134 -137 -340 -228q-26 -11 -35 -11q-13 0 -41 59t-28 75q0 17 31 37q128 85 194 228q94 202 94 555q0 128 -28 283 q-32 178 -84 267q-98 170 -176 220q-38 23 -38 39z" />
<glyph unicode="*" horiz-adv-x="868" d="M33 1070q0 22 16 43.5t37 21.5q34 0 102.5 -4.5t102.5 -4.5q32 0 39 35q13 91 35 199q19 37 65 37t64 -37q0 -1 34 -199q6 -35 39 -35q177 0 197 -2q56 -5 56 -60q0 -38 -102.5 -99t-102.5 -78q0 -5 41 -93t41 -134q0 -67 -68 -67q-39 0 -108 80t-91 80q-17 0 -85 -77 t-100 -77q-73 0 -73 63q0 45 37 133.5t37 86.5q0 18 -106.5 84t-106.5 104z" />
<glyph unicode="+" horiz-adv-x="969" d="M33 498q0 10 10 114q1 60 4 123q9 15 27 15q49 0 127 -3q104 -3 127 -4q-2 88 -2 188v109q0 19 26 19q37 0 109.5 2t108.5 2q49 0 49 -17q0 -50 -3.5 -152t-3.5 -153q214 4 291 4q21 0 21 -18q0 -11 -11 -123q3 -42 -6 -125q-4 -14 -14 -14q-51 0 -141 4q-102 4 -142 4 q1 -41 5 -152q3 -95 3 -151q0 -39 -151 -39q-146 0 -146 25q0 62 3 160q3 135 4 159q-262 -8 -277 -8q-18 0 -18 31z" />
<glyph unicode="," horiz-adv-x="575" d="M-12 -120q0 11 37 53q46 51 69 94q37 69 37 150q0 13 -3.5 37.5t-3.5 36.5q0 24 17 42q12 12 166 50q149 36 176 36q40 0 40 -42q0 -272 -201 -464q-32 -30 -100 -80q-83 -60 -107 -60q-15 0 -71 64t-56 83z" />
<glyph unicode="-" horiz-adv-x="870" d="M72 467q0 26 34 145q33 113 48 146q7 16 26 16q39 0 117 -4t117 -4q82 0 271 24q99 13 93 13q21 0 21 -33q0 -31 -14 -81q-12 -40 -23 -81q-4 -50 -19 -145q-3 -14 -24 -14q-38 0 -114.5 1t-115.5 1q-105 0 -282 -19q-10 -1 -54 -8q-35 -6 -55 -6q-26 0 -26 49z" />
<glyph unicode="." horiz-adv-x="575" d="M53 219q0 98 68 168t166 70t166.5 -70t68.5 -168q0 -99 -68.5 -169t-166.5 -70t-166 70.5t-68 168.5z" />
<glyph unicode="/" horiz-adv-x="678" d="M34 -38q0 10 3 22q139 478 203 727l125 485q14 67 47 199q6 22 21 22q31 0 117 -34q92 -37 92 -60q0 -9 -91 -335q-100 -357 -107 -382q-38 -149 -119 -474q-17 -83 -61 -243q-7 -22 -21 -22q-5 0 -14 4q-81 29 -188 74q-7 4 -7 17z" />
<glyph unicode="0" horiz-adv-x="1290" d="M49 604q0 259 168 442q172 189 428 189t428 -189q168 -184 168 -442t-167 -443q-173 -192 -429 -192t-428 192q-168 185 -168 443zM420 604q0 -104 59 -181q64 -83 166 -83q98 0 164 85q61 78 61 179q0 103 -60 179q-64 81 -165 81q-103 0 -166 -80q-59 -74 -59 -180z " />
<glyph unicode="1" horiz-adv-x="659" d="M12 1047q0 20 25 30q147 61 231 164q17 21 29 21q2 0 12 -2q38 -8 113 -25q40 -5 117 -18q14 -4 14 -22q0 -6 -2 -21q-11 -88 -11 -431q0 -115 1.5 -346t1.5 -346q0 -19 -17 -35t-37 -16q-48 0 -144 -1t-144 -1q-37 0 -36 32l1 11q14 382 14 463v297q0 28 -13 28 q-20 0 -60.5 -12t-61.5 -12q-31 0 -31 37q0 34 -1 102t-1 103z" />
<glyph unicode="2" horiz-adv-x="1059" d="M22 1087q0 13 17 25q83 59 222 93q124 30 241 30q190 0 318 -84q151 -98 151 -279q0 -241 -365 -563q259 13 406 13q30 0 30 -37q0 -23 -5 -69t-5 -70t-1 -75.5t-1 -76.5t-33 -25q-12 0 -94 19q-91 20 -340 20q-77 0 -231 -8.5t-229 -8.5q-26 0 -29 25q-3 34 -15 101 q-25 102 -25 117q0 22 84 33q98 13 126 36q101 85 207 215q135 164 135 246q0 71 -51.5 119.5t-122.5 48.5q-80 0 -159 -32q-53 -20 -111 -58q-49 -31 -54 -31q-34 0 -34 80q0 62 -5 90q-2 13 -15 54q-12 35 -12 52z" />
<glyph unicode="3" horiz-adv-x="997" d="M29 70q0 6 4 18q14 37 41 111q8 37 28 110q9 25 30 25q-3 0 89.5 -33t151.5 -33q196 0 196 131q0 105 -186 105q-25 0 -66 -2t-54 -2q-61 0 -67 1q-44 5 -44 34q0 153 12 192q8 25 32 25q34 0 100.5 -8.5t99.5 -8.5q43 0 71.5 28.5t28.5 72.5q0 118 -172 118 q-72 0 -195 -39q-5 -1 -9 -1q-13 0 -22 28q-2 42 -6 96q-1 12 -6 48q-4 29 -4 47q0 53 164 82q113 20 219 20q170 0 298 -75q155 -90 155 -249q0 -183 -166 -278q98 -33 155.5 -111t57.5 -180q0 -185 -153 -285q-130 -86 -325 -86q-150 0 -247 21q-211 44 -211 78z" />
<glyph unicode="4" horiz-adv-x="1130" d="M39 457q0 30 31 63q146 156 213 250q32 45 217 351q24 46 78 126q14 17 30 17q24 0 148.5 -36t169.5 -36q32 0 32 -41q0 -39 -9 -117.5t-9 -118.5v-421q19 0 66 6q42 6 65 6q19 0 19 -23q0 -21 -2.5 -63t-2.5 -64t3.5 -65.5t3.5 -65.5q0 -15 -25 -20q-18 -3 -50 -1 q-45 3 -38 3q-39 0 -39 -39q0 -24 3 -72.5t3 -72.5q0 -35 -31 -35q-345 0 -363 8.5t-18 21.5q0 15 12.5 74t12.5 86q0 33 -37 33q-67 0 -200.5 -4t-200.5 -4q-80 0 -80 63q0 32 -1 95.5t-1 95.5zM295 453q55 0 280 14q2 40 14 197q9 124 9 193q0 6 -7 6q-9 0 -18 -13 l-128 -206q-77 -119 -150 -191z" />
<glyph unicode="5" horiz-adv-x="1034" d="M35 130q0 42 10 112q13 90 30 90q5 0 17 -6q120 -60 273 -60q221 0 221 144q0 79 -81 119q-63 32 -151 32q-37 0 -110.5 -9t-110.5 -9q-35 0 -35 32q0 96 8.5 293t8.5 293q0 19 14.5 39.5t32.5 24.5q22 4 278 4q291 0 391 -2q27 -1 27 -23q0 -57 -12 -156 q-15 -127 -36 -127l-11 1q-226 20 -282 20q-110 0 -118 -12q-17 -30 -17 -113q0 -13 5 -20q25 0 79 5q51 5 79 5q186 0 309 -99q133 -106 133 -290q0 -447 -551 -447q-80 0 -214 17q-174 22 -183 53q-4 13 -4 89z" />
<glyph unicode="6" horiz-adv-x="1137" d="M49 539q0 313 239 516q227 192 546 192q19 0 28 -24q77 -197 77 -216q0 -46 -44 -46q-118 0 -218 -30q-130 -38 -177 -116q-11 -18 -11 -27q0 -6 6 -6q4 0 15 4q87 39 190 39q174 0 284 -102q114 -106 114 -279q0 -224 -148 -349q-139 -118 -368 -118q-246 0 -392 160 q-141 154 -141 402zM418 440q0 -82 41 -132q44 -54 125 -54t127 53q43 51 43 133q0 71 -46 117.5t-116 46.5q-76 0 -125 -44t-49 -120z" />
<glyph unicode="7" horiz-adv-x="979" d="M12 905q0 29 10 81q11 61 13 81q4 45 4 150q0 26 45 26q42 0 109 -7q92 -10 110 -11q172 -13 590 -13q45 0 49 -47q6 -71 6 -178q0 -18 -26 -43q-58 -53 -132 -193q-61 -117 -96 -216q-84 -241 -102 -478q-5 -64 -43 -75q-29 -9 -187 -9q-95 0 -113 2q-85 9 -85 48 q0 144 93 364q65 153 173 340q93 160 93 158q0 10 -42 10q-74 0 -222 -7.5t-222 -7.5q-25 0 -25 25z" />
<glyph unicode="8" horiz-adv-x="1006" d="M20 383q0 70 39 135q27 45 72 88l38 36q0 11 -31 44q-40 40 -59 75q-32 58 -32 132q0 180 149 274q125 78 316 78q161 0 295 -86q154 -99 154 -252q0 -81 -35 -148q-22 -44 -63 -86q-34 -35 -34 -41q0 -2 39 -42q47 -47 74 -95q39 -71 39 -151q0 -183 -144 -285 q-128 -90 -319 -90q-221 0 -350 95q-148 107 -148 319zM276 350q0 -67 51 -109q47 -40 115 -40q152 0 152 132q0 97 -162 146q-53 17 -57 17q-35 0 -68 -56q-31 -52 -31 -90zM410 902q0 -78 179 -127q12 -3 18 -3q33 0 60 52q24 46 24 83q0 51 -46 84q-42 29 -95 29 q-140 0 -140 -118z" />
<glyph unicode="9" horiz-adv-x="1157" d="M49 786q0 226 151 347q138 112 369 112q249 0 394 -160q139 -154 139 -405q0 -328 -244 -529q-228 -188 -563 -188q-20 0 -31 27q-71 174 -71 226q0 32 47 32q320 0 415 164q13 22 13 32q0 6 -6 6q-5 0 -23 -8q-84 -39 -190 -39q-175 0 -286 104q-114 105 -114 279z M397 791q0 -71 45 -118.5t115 -47.5q71 0 119 39q51 43 51 112q0 76 -43 130q-47 59 -121 59q-166 0 -166 -174z" />
<glyph unicode=":" horiz-adv-x="510" d="M57 188q0 90 56.5 144.5t146.5 54.5q86 0 141.5 -56.5t55.5 -142.5q0 -85 -58 -144.5t-143 -59.5q-84 0 -141.5 60t-57.5 144zM57 680q0 84 58 143.5t141 59.5q84 0 142.5 -59.5t58.5 -143.5q0 -87 -58.5 -139t-146.5 -52q-82 0 -138.5 54.5t-56.5 136.5z" />
<glyph unicode=";" horiz-adv-x="510" d="M-54 -157q0 11 64 88.5t70 152.5q2 23 0 59q-2 48 -2 60q0 40 33 51q46 7 137 25q10 2 79 25q59 20 70 20q42 0 42 -41q0 -100 -51 -216q-48 -111 -120 -188q-102 -110 -174 -141q-13 -6 -22 -6q-6 0 -62 41.5t-60 50t-4 19.5zM57 682q0 84 58 142.5t141 58.5 q84 0 142.5 -58.5t58.5 -142.5q0 -85 -58 -144t-143 -59q-84 0 -141.5 59.5t-57.5 143.5z" />
<glyph unicode="&#x3c;" horiz-adv-x="821" d="M68 465q0 20 3 59.5t3 59.5q0 17 -3 52.5t-3 53.5q0 26 30 37q91 34 260 137q59 36 141 101q125 98 136 106q8 7 25 14q24 -10 69 -102q43 -88 43 -119q0 -10 -14 -28q-141 -173 -373 -236q-10 -2 -20 -13q4 -8 18 -14q286 -117 377 -245q14 -20 14 -31q0 -29 -48 -130 q-49 -105 -70 -105q-136 106 -302 235q-125 95 -256 131q-30 8 -30 37z" />
<glyph unicode="=" horiz-adv-x="987" d="M74 328q0 18 4 51q5 37 6 51q-1 49 2 109q6 16 23 16q64 0 193 -5t194 -5q68 0 203.5 3t203.5 3q17 0 17 -20q0 -10 -7 -115t-8 -107q-4 -13 -12 -13l-10 1q-206 10 -422 10q-62 0 -185 -5t-184 -5q-18 0 -18 31zM74 711q0 9 8 100q1 51 4 109q6 16 23 16q64 0 193 -5 t194 -5q67 0 202.5 3t202.5 3q17 0 17 -20q0 -142 -13 -224q-2 -16 -14 -16q-1 0 -8 2q-59 10 -422 10q-62 0 -185 -4t-184 -4q-18 0 -18 35z" />
<glyph unicode="&#x3e;" horiz-adv-x="821" d="M52 868q0 25 49 125t66 100q136 -106 302 -235q125 -95 256 -131q31 -8 31 -37q0 -20 -3 -59.5t-3 -59.5q0 -17 3 -52.5t3 -53.5q0 -26 -31 -37q-91 -34 -260 -137q-58 -36 -141 -100q-124 -99 -136 -107q-8 -7 -25 -14q-21 9 -62.5 93t-41.5 109q0 11 15 29 q161 198 364 254q10 2 21 13q-5 8 -19 14q-274 113 -374 256q-14 18 -14 30z" />
<glyph unicode="?" horiz-adv-x="864" d="M28 1238q0 28 3 42q14 67 167 104q111 27 214 27q181 0 300 -101q126 -107 126 -286q0 -249 -201 -365q-151 -86 -164 -174q-3 -23 -5 -46q-7 -21 -36 -21q-101 0 -145 -12q-9 -3 -14 -3q-36 0 -36 98q0 85 98.5 210.5t98.5 210.5q0 129 -137 129q-87 0 -226 -68 q-43 0 -43 255zM199 164q0 77 53.5 131.5t130.5 54.5t130.5 -54.5t53.5 -131.5t-53.5 -133t-130.5 -56t-130.5 56t-53.5 133z" />
<glyph unicode="@" horiz-adv-x="1407" d="M55 700q0 293 195 512q202 228 491 228t444 -221q136 -193 136 -494q0 -43 -105 -210.5t-143 -186.5q-12 -6 -35 -6q-66 0 -86 47q-16 38 -28 38q3 0 -61 -36.5t-126 -36.5q-138 0 -224 104q-81 98 -81 240q0 165 86 264q90 105 252 105q70 0 153 -43t85 -43q28 0 28 30 q0 95 -101 168q-94 68 -192 68q-205 0 -340 -163q-129 -154 -129 -364q0 -217 125 -365q133 -157 346 -157q29 0 29 -16v-178q0 -21 -29 -21q-299 0 -498 221q-192 214 -192 516zM721 692q0 -58 30 -98q33 -43 90 -43q69 0 114.5 39t45.5 106q0 62 -41.5 98.5t-103.5 36.5 q-61 0 -98 -39t-37 -100z" />
<glyph unicode="A" horiz-adv-x="1421" d="M6 21q0 26 226 639q245 663 266 729q12 38 28 38q27 0 83.5 -5t84.5 -5q27 0 79.5 3.5t78.5 3.5q19 0 35 -33q49 -105 286 -720q238 -619 238 -646q0 -18 -25 -25q-30 -8 -186 -8q-143 0 -184 8q-34 7 -43 45q-34 144 -53 154q-16 7 -268 7q-170 0 -181 -9 q-17 -16 -38 -107q-19 -83 -46 -90q-34 -8 -228 -8q-153 0 -153 29zM577 562q0 -18 60 -20q31 -2 102 -2q66 0 73 16q2 5 2 14q0 33 -46 182q-45 144 -66 184q-21 -44 -71 -191q-54 -156 -54 -183z" />
<glyph unicode="B" horiz-adv-x="1309" d="M88 35q0 107 12.5 324t12.5 325q0 116 -12 436q-3 82 -11 246l-1 14q-1 19 31.5 23t231.5 4q319 0 373 -2q246 -9 363 -80q155 -95 155 -321q0 -59 -36 -125q-26 -47 -68 -94q-37 -41 -37 -38q0 -7 26 -22q70 -40 110 -127q36 -78 36 -166q0 -184 -115 -305 q-131 -139 -460 -139q-25 0 -72 1h-71q-369 0 -439 15q-29 6 -29 31zM485 993q0 -100 17 -112q11 -9 127 -9q215 0 215 123q0 86 -86 114q-48 15 -158 15q-108 0 -108 -16q0 -19 -3.5 -57.5t-3.5 -57.5zM492 446q0 -118 13 -130.5t144 -12.5q108 0 152 17q73 29 73 116 q0 90 -75 122q-48 20 -156 20q-129 0 -140 -9.5t-11 -122.5z" />
<glyph unicode="C" horiz-adv-x="1276" d="M55 698q0 304 185 516q193 222 491 222q324 0 508 -199q20 -22 20 -39q0 -19 -69.5 -141t-87.5 -137q-8 -8 -20 -8q-5 0 -50 40q-54 48 -106 75q-79 40 -164 40q-147 0 -235 -110q-81 -102 -81 -252q0 -152 81 -255q88 -112 235 -112q87 0 165 38q51 25 104 70 q44 38 49 38q10 0 20 -11q16 -18 87 -125q73 -111 73 -122q0 -16 -21 -42q-184 -219 -489 -219q-312 0 -506 213q-189 206 -189 520z" />
<glyph unicode="D" horiz-adv-x="1460" d="M96 23q0 110 8.5 330.5t8.5 330.5q0 115 -8.5 344.5t-8.5 343.5q0 21 29 25q71 8 233 8q308 0 399 -9q237 -24 371 -120q126 -90 199 -252q70 -153 70 -315q0 -294 -189 -510q-167 -193 -469 -203q-58 -2 -319 -2q-49 0 -147.5 3t-147.5 3q-29 0 -29 23zM485 700 q0 -58 2 -174.5t2 -175.5q0 -43 160 -43q173 0 272 115q93 109 93 287q0 169 -101 276q-102 111 -270 111q-154 0 -154 -41q0 -59 -2 -177.5t-2 -177.5z" />
<glyph unicode="E" horiz-adv-x="1157" d="M88 29q0 112 12.5 336.5t12.5 336.5q0 114 -12 425q-3 80 -11 239l-1 14q-2 23 25 23q74 0 222.5 -4t222.5 -4q73 0 220 4t220 4q52 0 60 -39q5 -23 15.5 -139.5t10.5 -141.5q0 -21 -20 -21q-6 0 -21 1q-266 22 -478 22q-53 0 -65 -25q-5 -12 -5 -77q0 -68 20 -90 q17 -19 65 -19q10 0 39 1.5t48 1.5q126 0 255 7l55 5q34 4 54 4q24 0 24 -23v2q-2 0 -18 -155q-8 -80 -8 -160q0 -20 -29 -20l-90 10q-57 6 -260 6h-106q-41 0 -48 -20q-1 -5 -1 -62q0 -76 10 -98q17 -38 128 -45q-2 0 146 0q53 0 157.5 9.5t156.5 9.5q22 0 22 -36 q0 -43 -17 -158q-18 -125 -32 -149q-12 -19 -33 -19q-9 0 -30 3q-73 10 -426 10q-77 0 -229 1t-228 1q-33 0 -33 29z" />
<glyph unicode="F" horiz-adv-x="1151" d="M83 1374q-1 25 30 25q74 0 223.5 -3t224.5 -3q80 0 240.5 12t240.5 12q50 0 56 -41q0 -43 4 -129q2 -22 13 -85q10 -55 10 -85q0 -11 -20 -11q-75 0 -227.5 13t-228.5 13q-96 0 -112 -7q-37 -17 -37 -96q0 -95 48 -108q20 -5 61 -5q69 0 206.5 7.5t206.5 7.5 q33 0 33 -176q0 -153 -11 -178q-7 -18 -27 -18h2q0 1 -65 7q-107 10 -324 10q-70 0 -79 -1q-51 -8 -51 -43q0 -142 12 -327q9 -151 10 -151v2q0 -26 -63 -30h2q0 1 -91 1q-187 0 -241 13q-29 7 -29 31q0 111 7.5 333.5t7.5 333.5q0 132 -12 332q-18 309 -19 332z" />
<glyph unicode="G" horiz-adv-x="1456" d="M55 694q0 317 190 526q196 216 509 216q152 0 286 -58q145 -64 228 -180q17 -24 17 -34q0 -32 -89.5 -143.5t-115.5 -111.5q-6 0 -46 41q-49 49 -100 76q-76 41 -168 41q-150 0 -238 -112q-82 -103 -82 -257q0 -163 85 -258q88 -98 249 -98q102 0 228 51q-3 33 -18 168 q-13 104 -13 168q0 19 13 23q5 2 16 2q29 0 87.5 -5.5t88.5 -5.5q32 0 96 4.5t96 4.5q25 0 25 -33q0 -48 -5.5 -145t-5.5 -145q0 -129 19 -386l1 -11q2 -27 -28 -27q-19 0 -109.5 22t-111.5 30q-209 -82 -401 -82q-309 0 -507 206q-196 203 -196 513z" />
<glyph unicode="H" horiz-adv-x="1526" d="M92 31q0 108 10.5 326t10.5 327q0 116 -10 348.5t-10 348.5q0 22 21 22q31 0 93.5 -3t93.5 -3q32 0 96.5 3t96.5 3q17 0 17 -18q0 -75 -11 -224.5t-11 -224.5q0 -35 19 -41q26 -8 256 -8q214 0 248 8q24 6 24 41q0 72 -7 217.5t-7 218.5q0 31 25 31q29 0 88.5 -3t89.5 -3 q29 0 88.5 3t89.5 3q29 0 29 -24q0 -115 -9.5 -347t-9.5 -348q0 -109 10.5 -327t10.5 -326q0 -21 -9 -26q-4 -3 -28 -5q-61 -6 -172 -6q-157 0 -184.5 6t-27.5 27q0 79 7.5 237.5t7.5 237.5q0 39 -22 45q-34 8 -242 8q-209 0 -244 -8q-22 -5 -22 -45q0 -78 5 -233.5 t5 -233.5q0 -30 -27 -35q-32 -6 -188 -6q-135 0 -172 6q-29 5 -29 31z" />
<glyph unicode="I" horiz-adv-x="610" d="M86 31v-1q1 0 9 177q18 405 18 532q0 107 -7 321t-7 321q0 22 23 22q31 0 93.5 -3t93.5 -3t91.5 3t91.5 3q29 0 29 -22q0 -107 -11.5 -321t-11.5 -321q0 -118 6 -355t6 -355q0 -20 -9 -25q-2 -1 -26 -4q-65 -8 -174 -8q-146 0 -186 8q-29 6 -29 31z" />
<glyph unicode="J" horiz-adv-x="690" d="M3 26q0 9 11 19q74 65 94 89q39 47 60 118q28 97 28 319q0 514 -36 797q-2 10 -2 15q0 18 32 18t94.5 -3t94.5 -3q30 0 89 3t89 3q29 0 29 -26q0 -138 -2 -415.5t-2 -416.5q0 -250 -41 -387q-74 -243 -238 -381q-19 -17 -31 -17q-11 0 -22 13q-35 41 -109 123 q-43 36 -127 112q-11 12 -11 20z" />
<glyph unicode="K" horiz-adv-x="1346" d="M92 31q0 108 10.5 326t10.5 327q0 116 -10 348.5t-10 348.5q0 22 21 22q31 0 93.5 -3t93.5 -3q32 0 95 3t94 3q17 0 17 -18q0 -74 -7.5 -223.5t-7.5 -223.5q0 -86 47 -86q119 0 185 65q49 48 99 175q32 97 105 286q11 25 45 25q26 0 78.5 -3t78.5 -3q27 0 80.5 2t79.5 2 q24 0 24 -23q0 -33 -42 -161q-124 -378 -285 -472q-33 -19 -33 -31q0 1 184.5 -300t184.5 -358q0 -43 -37 -56q-30 -10 -158 -10q-123 0 -180 10q-27 5 -35.5 10.5t-21.5 28.5q-73 134 -145 268q-119 216 -142 238q-108 -39 -108 -56q0 -75 6 -226.5t6 -227.5q0 -31 -27 -35 q-52 -8 -188 -8q-130 0 -172 8q-29 6 -29 31z" />
<glyph unicode="L" horiz-adv-x="1120" d="M99 1379q0 22 30 22t89.5 -3t88.5 -3q33 0 98 3.5t98 3.5q15 0 14 -19l-1 -13q-12 -188 -27 -565l-1 -264q0 -128 1 -187l2 -24t15 -15h26q90 0 269.5 9.5t269.5 9.5q27 0 27 -23q0 -171 -25 -295q-5 -26 -21 -31q-5 -2 -41 -2q-86 0 -224 4q-180 4 -224 5l-299 4h-16 q-43 0 -113 4q-29 5 -29 31q0 109 3.5 326.5t3.5 326.5q0 116 -7 347.5t-7 347.5z" />
<glyph unicode="M" horiz-adv-x="1677" d="M92 29q0 109 10.5 327.5t10.5 327.5q0 116 -10 435q-1 83 -9 247l-1 17q-1 20 42 20q55 0 165 3.5t165 3.5q11 0 31 -42l292 -641q31 -65 52 -65q11 0 47 75q101 210 299 633q17 39 37 39q29 0 87.5 -3t88.5 -3q25 0 76.5 5t76.5 5q30 0 30 -24q0 -118 -8.5 -352.5 t-8.5 -352.5q0 -109 9 -327t9 -326q0 -31 -29 -31h-354q-29 0 -29 35q0 101 7.5 303t7.5 303q0 29 -9 31q-11 -6 -134 -309q-72 -178 -144 -355q-10 -23 -25 -27q-5 -1 -40 -1q-52 0 -62 20q-54 110 -142 320q-94 222 -141 321q-2 5 -9 11q-7 -9 -7 -29q0 -98 5 -294t5 -294 q0 -35 -28 -35h-334q-20 0 -24.5 6.5t-4.5 22.5z" />
<glyph unicode="N" horiz-adv-x="1524" d="M92 31q0 108 10.5 326t10.5 327q0 115 -9.5 344t-9.5 343q0 22 39 22q58 0 143 8q20 2 79 13q50 9 79 9q12 0 37 -34l373 -511q50 -69 151 -202q25 -31 43 -31q13 0 13 78q0 105 -11.5 316t-11.5 317q0 37 21 37q60 0 181 5t181 5q19 0 19 -31q0 -114 -9.5 -342.5 t-9.5 -343.5v-659q0 -27 -29 -27q-24 0 -72.5 -2t-72.5 -2q-26 0 -78 4t-78 4q-18 0 -43 33q-72 97 -324 430q-69 93 -210 274q-4 6 -15 12q-8 -7 -8 -22q0 -116 6.5 -348t6.5 -348q0 -35 -27 -35h-346q-29 0 -29 31z" />
<glyph unicode="O" d="M55 700q0 311 200 523q204 217 513 217q307 0 512 -217q201 -214 201 -523q0 -312 -199 -523q-203 -214 -514 -214q-309 0 -513 216q-200 211 -200 521zM434 700q0 -153 89 -255q94 -107 245 -107q141 0 240 113q94 108 94 251q0 150 -91 255q-95 110 -243 110 q-141 0 -239 -114q-95 -110 -95 -253z" />
<glyph unicode="P" horiz-adv-x="1335" d="M85 1370q-2 19 30 23q78 10 344 10q157 0 301 -4q237 -7 382 -149q148 -146 148 -382q0 -242 -127 -392q-136 -159 -375 -159q-40 0 -120.5 4.5t-120.5 4.5q-43 0 -43 -37q0 -46 9 -137t9 -136q0 -23 -21 -23q-61 0 -183 3.5t-183 3.5q-29 0 -29 29q0 111 3.5 333.5 t3.5 333.5q0 314 -27 660zM489 836q0 -31 2.5 -91.5t2.5 -91.5q0 -20 180 -20q217 0 217 219q0 233 -227 233q-160 0 -168 -18q-7 -13 -7 -231z" />
<glyph unicode="Q" d="M55 700q0 311 200 523q204 217 513 217q307 0 512 -218q201 -213 201 -522q0 -266 -145 -458q-148 -197 -404 -252q50 -102 149 -187q9 -7 9 -13q0 -40 -246 -40q-181 0 -223 14q-23 8 -29 37q-9 43 -9 130q0 29 1 63q-245 61 -389 258q-140 191 -140 448zM434 700 q0 -162 85 -260q89 -104 249 -104q155 0 247 107q87 102 87 259q0 154 -89 257q-94 108 -245 108q-156 0 -247 -107q-87 -101 -87 -260z" />
<glyph unicode="R" horiz-adv-x="1305" d="M92 31q0 110 10.5 332t10.5 333q0 423 -19 660l-1 14q-1 17 31.5 23t305.5 12q185 4 295 4q228 0 372 -103q163 -116 163 -335q0 -146 -42 -233t-155 -169q-23 -16 -23 -30q0 1 122 -251t122 -278q0 -7 -20 -10q-38 -6 -191 -6q-131 0 -178 6q-22 3 -25 5q-6 3 -14 20 q-15 39 -44 116q-39 100 -122 295q-18 39 -83 43q6 0 6 -1t-109 -1q-15 0 -15 -51q0 -68 12.5 -203t12.5 -203q0 -17 -9 -20l-28 -2q-59 -4 -184 -4q-143 0 -172 6t-29 31zM483 887q0 -23 1 -68t1 -67q0 -5 32 -10q61 -9 128 -9q219 0 219 174q0 122 -80 169q-62 36 -194 36 q-95 0 -101 -29q-6 -34 -6 -196z" />
<glyph unicode="S" horiz-adv-x="848" d="M44 260q0 11 15 14q145 33 192 56q104 52 104 154q0 65 -68 145q-118 136 -128 151q-69 104 -69 230q0 183 169 304q138 100 339 130q11 1 17 1q15 0 24 -24q26 -73 121 -264q3 -6 3 -10q0 -17 -18 -17q-8 0 -27 3t-29 3q-72 0 -126 -33q-65 -38 -65 -106q0 -61 72 -150 q127 -160 133 -168q71 -110 71 -219q0 -203 -171 -348q-150 -128 -365 -163q-8 -1 -13 -1q-23 0 -102 140.5t-79 171.5z" />
<glyph unicode="T" horiz-adv-x="1081" d="M11 1077q0 13 14 77q16 70 18 85q3 47 7 94q7 75 24 75q2 0 14 -1q162 -21 479 -21q90 0 332 19q130 10 131 10q20 0 23 -2.5t4 -19.5q0 -27 -2 -75q-2 -53 -2 -75q0 -25 6.5 -73.5t6.5 -72.5q0 -20 -22 -20q-38 0 -301 15q-6 -253 -6 -353q0 -118 9.5 -355t9.5 -355 q0 -19 -9 -24q-3 -2 -28 -5q-60 -8 -176 -8q-129 0 -181 8q-28 5 -28 31q0 118 10 354t10 354q0 78 -8 348q-200 -20 -319 -20q-16 0 -16 10z" />
<glyph unicode="U" horiz-adv-x="1391" d="M87 1379q0 24 21 24q61 0 184.5 -5t184.5 -5q25 0 25 -22q0 -132 -8.5 -395.5t-8.5 -395.5q0 -157 33 -212q44 -75 184 -75q205 0 205 199q0 145 -7 435t-7 435q0 31 25 31q59 0 178 5t178 5q29 0 29 -24q0 -115 -9.5 -347t-9.5 -348q0 -32 1 -96.5t1 -96.5 q0 -255 -61 -348q-112 -170 -559 -170q-202 0 -311 31q-174 50 -226 191q-26 69 -26 246q0 41 3 122t3 121q0 116 -11 348t-11 347z" />
<glyph unicode="V" horiz-adv-x="1337" d="M61 891q0 79 5.5 237.5t5.5 237.5q0 37 20 37q60 0 182 -5t183 -5q25 0 25 -21q0 -81 -11.5 -243.5t-11.5 -243.5q0 -62 203 -443q55 99 125 243q94 194 94 238q0 73 -2 219.5t-2 219.5q0 27 9 30h32q55 0 166.5 5.5t166.5 5.5q30 0 30 -24q0 -77 -2.5 -232.5 t-2.5 -233.5q0 -62 -197 -456q-78 -142 -225 -428q-10 -22 -13.5 -24.5t-25.5 -4.5q-51 -4 -158 -4q-135 0 -154 4t-32 29q-114 225 -229 451q-181 363 -181 411z" />
<glyph unicode="W" horiz-adv-x="1923" d="M59 891q0 80 5.5 239.5t5.5 239.5q0 33 20 33q57 0 172.5 -5t173.5 -5q23 0 23 -19q0 -80 -7.5 -241.5t-7.5 -241.5q0 -30 73 -191q66 -144 96 -195q15 -26 20 -26q8 0 41 96q94 269 96 318q2 53 2 121q0 52 -1 113q-3 205 -3 235q0 19 3 22.5t22 6.5q51 6 176 6 q191 0 191 -27q0 -67 -5 -208q-4 -114 -4 -182v-26v-51q0 -51 103 -325q35 -95 42 -95q5 0 20 26q28 49 90 194q69 158 69 188q0 81 -7.5 242.5t-7.5 241.5q0 18 23 18q59 0 177.5 5t177.5 5q19 0 19 -40q0 -79 5.5 -236.5t5.5 -235.5q0 -3 -186 -403q-189 -408 -216 -459 q-9 -18 -11 -20q-4 -5 -19 -9q-25 -6 -142 -6q-109 0 -133 6q-20 5 -24 8t-13 19q-6 11 -57 141l-109 278l-111 -281q-17 -48 -56 -138q-10 -17 -14 -20.5t-23 -6.5q-34 -6 -131 -6q-120 0 -144 6q-17 4 -28 29q-392 805 -392 862z" />
<glyph unicode="X" horiz-adv-x="1262" d="M61 1386q0 19 35 19q23 0 68 -3t67 -3q20 0 59 2t58 2q16 0 145.5 -194.5t135.5 -194.5q20 12 147 204q121 185 139 185h238q35 0 35 -17v-243q0 -26 -154.5 -227t-154.5 -213q0 -17 136 -197q160 -211 167 -221q14 -22 14 -152q0 -98 -9 -116q-11 -22 -68 -22h-40 q-30 1 -50.5 1t-61 2t-60.5 2q-16 0 -144 192t-133 193q-21 -17 -144 -202q-118 -177 -138 -183q-14 -4 -75 -4q-205 0 -205 21t-2.5 60t-2.5 58q0 124 15 146q1 1 165 219q133 176 133 201t-133 198q-84 107 -167 215q-9 13 -11 43q-1 21 0 57q3 43 3 48q0 20 -3.5 62 t-3.5 62z" />
<glyph unicode="Y" horiz-adv-x="1272" d="M31 1370q0 33 20 33q61 0 185 -5t186 -5q23 0 23 -15q0 -51 -4.5 -153.5t-4.5 -153.5q0 -30 88 -150q70 -94 115 -145q41 48 109 144q86 120 86 145q0 50 -7.5 151.5t-7.5 151.5q0 21 9 24h25q60 0 180.5 5.5t181.5 5.5q20 0 20 -43q0 -53 2 -159.5t2 -160.5 q0 -43 -16 -75q-131 -259 -357 -545q-32 -42 -32 -76q0 -53 6 -159t6 -158q0 -18 -8 -22q-2 -1 -27 -5q-36 -6 -180 -6q-145 0 -185 6q-28 4 -28 29q0 53 9 161.5t9 162.5q0 32 -24 69q-121 171 -346 524q-23 39 -23 64q0 60 -6 180t-6 180z" />
<glyph unicode="Z" horiz-adv-x="1106" d="M64 268q0 5 245 387.5t245 411.5q0 16 -26 16q-70 0 -211.5 -4t-212.5 -4q-22 0 -22 23q0 37 22.5 144t22.5 155q0 16 27 16q138 0 414.5 -6t414.5 -6q21 0 27 -23q18 -80 18 -229q0 -18 -18 -45q-63 -91 -265 -402q-230 -355 -230 -372q0 -8 17 -8q203 0 312 8 q22 1 96 12q63 10 93 10q14 0 14 -21q0 -163 -29 -325q-4 -22 -25 -22q-59 0 -177 6t-177 6q-84 0 -251 2t-251 2q-36 0 -41 23q-2 64 -20 190q-12 49 -12 55z" />
<glyph unicode="[" horiz-adv-x="838" d="M129 1092q0 291 35 313q8 5 110 5q69 0 207 1.5t207 1.5q85 0 98 -13.5t13 -99.5q0 -82 2 -63q-3 -43 -28 -43q-40 0 -120 4t-120 4q-46 0 -64 -22q-9 -12 -18 -231q-7 -185 -7 -271q0 -711 35 -846q35 0 115 -1q77 -1 116 -1q64 0 74 -7q15 -10 15 -65q0 -138 -19 -143 q-368 -4 -540 -4q-70 0 -84 18q-10 12 -11 272v312q-1 97 -9 439q-7 272 -7 440z" />
<glyph unicode="\" horiz-adv-x="678" d="M40 1315q0 25 85 61q79 35 111 35q12 0 20 -10q5 -6 127 -471q71 -249 142 -499q109 -389 109 -463l-1 -11q-4 -7 -94.5 -46t-101.5 -39q-14 0 -19 11q-4 8 -42 154l-89 340q-71 242 -142 485q-105 369 -105 453z" />
<glyph unicode="]" horiz-adv-x="838" d="M79 1300q0 86 13 99.5t98 13.5q69 0 207.5 -1.5t207.5 -1.5q102 0 110 -5q35 -22 35 -313q0 -168 -7 -440q-8 -342 -10 -439v-312q-1 -260 -10 -272q-15 -19 -84 -18l-541 4q-18 8 -18 143q0 30 4 58q14 14 121 14q33 0 98.5 1t95.5 1q36 135 36 846q0 86 -7 271 q-9 219 -18 231q-18 22 -64 22q-41 0 -124 -4t-124 -4q-19 0 -19 106z" />
<glyph unicode="^" horiz-adv-x="1067" d="M45 670q0 9 16 32q144 209 184 276q85 140 144 298q11 29 31 29q18 0 54 -3.5t54 -3.5q20 0 60 3.5t59 3.5q23 0 31 -29q39 -145 121 -275q10 -16 127 -179q108 -151 108 -156q0 -7 -12 -11q-22 -6 -114 -54q-88 -46 -91 -46q-11 0 -31 20q-154 168 -249 400q-4 9 -11 9 q-6 0 -10 -9q-10 -29 -31 -87q-69 -173 -200 -308q-20 -21 -31 -21q-7 0 -56 28q-57 33 -63 36q-90 40 -90 47z" />
<glyph unicode="_" horiz-adv-x="944" d="M-20 -385q0 39 6 118.5t6 119.5q0 18 22 18q75 0 225.5 -5t225.5 -5q78 0 234.5 3t234.5 3q19 0 19 -22q0 -40 -6.5 -122t-6.5 -122q0 -17 -25 -17q-81 0 -244 5t-245 5q-71 0 -212 -5t-212 -5q-22 0 -22 31z" />
<glyph unicode="`" horiz-adv-x="758" d="M53 1343q0 8 15 19q29 17 86 53q24 23 75 68q6 5 18 10q82 -60 197 -139q120 -69 193 -99q20 -8 20 -20q0 -11 -3 -33t-3 -33t3 -33.5t3 -33.5q0 -19 -22 -19h-8q-130 13 -296 81q-173 72 -263 157q-15 13 -15 22z" />
<glyph unicode="a" horiz-adv-x="1204" d="M43 475q0 231 125 372q130 146 356 146q157 0 248 -110q4 -5 7 -5q9 0 20.5 48.5t27.5 48.5q37 0 141 -21q99 -20 142 -34q15 -6 15 -16q0 -4 -3 -21q-32 -181 -32 -383q0 -77 9 -229t9 -228q0 -40 -35 -43q-124 -9 -284 -9q-19 0 -25.5 57.5t-15.5 58.5q-8 -4 -21 -17 q-112 -113 -240 -113q-195 0 -323 154q-121 144 -121 344zM383 494q0 -81 56 -139t136 -58q85 0 139 55.5t54 141.5q0 85 -53.5 140.5t-139.5 55.5t-139 -55t-53 -141z" />
<glyph unicode="b" horiz-adv-x="1206" d="M65 1395q0 16 31 18q22 1 174 15q107 10 174 10q19 0 19 -33q0 -39 -5 -103q-6 -79 -7 -104q-5 -99 -5 -270q0 -31 16 -31q8 0 15 8q90 96 236 96q219 0 342 -149q114 -138 114 -363q0 -210 -120 -351q-128 -150 -334 -150q-150 0 -242 86q-7 6 -12 6q-10 0 -18.5 -37 t-20.5 -41q-17 -5 -285 -5q-63 0 -63 23q0 3 2 15q20 159 20 606q0 427 -30 743zM442 498q0 -88 47 -142q50 -57 136 -57q85 0 135 59q47 55 47 142q0 83 -51 140.5t-133 57.5q-84 0 -132.5 -57.5t-48.5 -142.5z" />
<glyph unicode="c" horiz-adv-x="852" d="M37 492q0 219 143.5 368.5t362.5 149.5q149 0 262 -64q26 -14 26 -27t-30 -118q-28 -101 -36.5 -122t-17.5 -21q-1 0 -60.5 16t-96.5 16q-89 0 -142 -53.5t-53 -142.5q0 -92 58 -144.5t151 -52.5q44 0 99 22.5t52 22.5q17 0 44 -127q23 -116 23 -154t-124 -65 q-96 -21 -155 -21q-220 0 -363 148t-143 369z" />
<glyph unicode="d" horiz-adv-x="1208" d="M39 492q0 218 119 359q126 150 340 150q151 0 235 -96q14 -16 20 -16q9 0 9 26q0 77 -4 230t-4 229q0 29 16 33q64 3 176 12q179 22 179 25h-2q22 0 22 -25v4q-1 0 -8 -70q-11 -111 -17 -284q-8 -196 -8 -446q0 -413 23 -588q2 -19 2 -24q0 -11 -15 -13q-36 -5 -265 -5 q-54 0 -62 21l-4 76q-1 8 -8 16q-6 -3 -15 -12q-108 -106 -270 -106q-211 0 -338 148q-121 141 -121 356zM401 496q0 -81 49 -137q50 -60 130 -60t134 60t54 141q0 79 -55 138.5t-133 59.5q-82 0 -130.5 -59.5t-48.5 -142.5z" />
<glyph unicode="e" horiz-adv-x="1026" d="M41 487q0 230 134 377q138 152 366 152q192 0 326 -140t134 -333q0 -101 -65 -115q-11 -2 -207 -22q-118 -13 -352 -31q14 -65 85 -99q58 -28 132 -28q89 0 179 48l76 48q21 -10 70.5 -102t49.5 -117q0 -7 -15 -23q-122 -131 -379 -131q-238 0 -384 139 q-150 141 -150 377zM360 592q0 -27 28 -27q74 0 230 23q33 5 33 16q0 62 -44 109t-105 47q-63 0 -104 -53q-38 -49 -38 -115z" />
<glyph unicode="f" horiz-adv-x="723" d="M24 888q0 37 38 45q34 3 69 5q-5 80 -5 125q0 172 67 250q133 155 430 155q20 0 24 -12q8 -45 23 -133q1 -8 13 -56q9 -37 9 -57q0 -24 -71 -31q-82 -9 -101 -30q-33 -36 -33 -141q0 -33 5 -62q28 0 87 2t89 2t30 -22q0 -47 1 -141.5t1 -141.5q0 -24 -26 -24 q-108 0 -170 6q3 -75 6 -209q1 -57 9 -198q7 -127 7 -198q0 -21 -28 -24q-34 -4 -170 -4q-113 0 -147 6t-34 41v551q0 29 -40 29q-7 0 -22.5 -1t-22.5 -1q-28 0 -29 16q-9 87 -9 253z" />
<glyph unicode="g" horiz-adv-x="1169" d="M37 545q0 191 112 317q117 131 306 131q151 0 231 -108q16 -22 22 -22q9 0 9 36q0 80 18 80q16 0 173 -16.5t163 -18.5q17 -6 17 -26q0 -69 -4.5 -206t-4.5 -206q0 -41 1 -123t1 -123q0 -285 -120 -409q-124 -127 -412 -127q-84 0 -229 27q-185 34 -185 80q0 19 43 196 q7 28 22 28q5 -1 11 -4q154 -76 285 -76q72 0 143 36q86 43 86 108v67q-102 -96 -262 -96q-188 0 -309 135q-117 130 -117 320zM395 535q0 -73 49.5 -126t120.5 -53q73 0 121.5 54t48.5 127t-48.5 126.5t-121.5 53.5t-121.5 -54.5t-48.5 -127.5z" />
<glyph unicode="h" horiz-adv-x="1161" d="M69 1369q0 15 15 20q31 9 91 11q80 3 93 5l181 21q16 0 16 -21q0 -32 -4 -87q-4 -64 -4 -87q-6 -226 -6 -357q0 -20 10 -20q2 0 51 35q58 41 111 65q79 35 153 35q128 0 214 -67q93 -72 93 -197l-2 -690q0 -35 -28 -39q-32 -4 -146 -4q-110 0 -153 8q-33 6 -33 43 q0 86 3 259t3 259q0 117 -119 117q-40 0 -94 -32q-59 -35 -59 -73v-247q0 -48 2 -144.5t2 -144.5q0 -37 -31 -41t-174 -4q-82 0 -118 8t-36 35q0 79 1 237.5t1 237.5q0 327 -7 541q-3 75 -5 150q-5 87 -18 149q-3 13 -3 19z" />
<glyph unicode="i" horiz-adv-x="563" d="M82 932q0 20 27 20q28 0 85.5 -6t86.5 -6t87 5t87 5q24 0 24 -20q0 -4 -2 -19q-22 -195 -22 -452q0 -73 3 -217.5t3 -216.5q0 -21 -25 -25q-34 -6 -153 -6q-120 0 -154 6q-22 4 -27 13q-2 4 -2 30q0 69 3 207.5t3 208.5q0 284 -22 452q-2 16 -2 21zM86 1202q0 78 62 128 q57 46 137 46q78 0 135 -47q61 -50 61 -127q0 -174 -196 -174q-84 0 -139 44q-60 48 -60 130z" />
<glyph unicode="j" horiz-adv-x="569" d="M-30 -95q0 87 26 95q79 24 100 47q25 28 29 111q3 54 3 276q0 264 -36 479q-1 9 -1 14q0 25 28 25q100 0 155 6q160 18 175 18q21 0 24 -26q6 -48 6 -391v-348q0 -207 -71 -311q-79 -115 -273 -156q-58 -12 -125 -12q-40 0 -40 173zM92 1212q0 77 61 126q57 44 136 44 t136 -44q62 -48 62 -126q0 -168 -198 -168q-85 0 -138 41q-59 45 -59 127z" />
<glyph unicode="k" horiz-adv-x="1231" d="M86 1386q0 24 27 25q53 0 159 2q28 2 97 12q61 9 96 9q16 0 16 -29q0 -38 -6 -103q-7 -76 -8 -104q-9 -215 -9 -333q0 -28 7 -29q9 6 24 22q130 135 316 135q175 0 278 -80q113 -89 113 -260q0 -221 -217 -336q-20 -10 -20 -21q0 -17 93 -141.5t93 -130.5q0 -27 -265 -27 q-102 0 -118 26q-40 67 -125 192q-5 6 -180 14q0 -31 1 -99t1 -101q0 -30 -29 -33q-18 -2 -158 -2q-121 0 -141 4q-27 5 -27 41v612q0 123 -9 368t-9 367zM458 556q0 -83 23 -100q18 -12 115 -12q203 0 203 144q0 121 -137 121q-61 0 -130 -46q-74 -49 -74 -107z" />
<glyph unicode="l" horiz-adv-x="547" d="M70 1383q0 22 26 22h357q25 0 23 -21l-1 -18q-26 -432 -26 -764q0 -273 2 -419q0 -23 3 -79q3 -51 3 -79q0 -21 -25 -25q-45 -8 -162 -8q-120 0 -153 8q-22 5 -25 27v43q0 89 2 266.5t2 265.5q0 386 1 386v-3q-3 221 -25 381q-2 11 -2 17z" />
<glyph unicode="m" horiz-adv-x="1788" d="M74 903q0 17 14 23q22 9 83 15q75 7 89 9q10 2 79 21q49 14 79 14q19 0 20 -69.5t8 -69.5q10 4 23 14q90 70 142 96q77 37 167 37q92 0 164 -41q81 -46 105 -129q53 72 146 121t181 49q132 0 215 -61q94 -69 94 -197q0 -53 -3 -159.5t-3 -159.5q0 -63 3 -189.5t3 -189.5 q0 -35 -30 -39t-148 -4q-122 0 -152 6t-30 49q0 46 3 137.5t3 137.5q0 175 -4 249q-6 119 -113 119q-47 0 -93.5 -39.5t-51.5 -87.5q-4 -42 -4 -246q0 -47 3 -142.5t3 -143.5q0 -33 -29 -33h-303q-28 0 -28 41q0 47 3 141t3 142q0 37 -2 112t-2 113q0 143 -109 143 q-44 0 -95 -34q-56 -37 -56 -78q0 -91 1 -272t1 -271q0 -25 -6 -31t-31 -8q-45 -4 -142 -4q-63 0 -143 6q-24 2 -28.5 7t-4.5 30q0 80 1 239.5t1 239.5q0 164 -24 369q-2 12 -2 18z" />
<glyph unicode="n" horiz-adv-x="1161" d="M59 910q0 16 15 22q63 7 168 22q159 31 179 31q11 0 17 -67.5t17 -67.5q-1 0 -1 1q0 5 108 69q118 70 208 69q127 0 212 -60q95 -69 95 -192v-319q0 -65 1 -194.5t1 -194.5q0 -27 -28 -31t-146 -4q-126 0 -156 6t-30 41q0 47 3 142t3 143q0 37 -2 110.5t-2 110.5 q0 137 -119 137q-39 0 -91 -34q-56 -38 -56 -75v-540q0 -33 -31 -37q-35 -4 -143 -4q-117 0 -152 6q-31 5 -31 33q0 78 1 235t1 236q0 249 -39 391q-2 9 -2 15z" />
<glyph unicode="o" horiz-adv-x="1083" d="M37 480q0 232 136 376.5t368 144.5q226 0 366 -141.5t140 -367.5q0 -228 -139.5 -370t-366.5 -142q-220 0 -362 140t-142 360zM365 492q0 -81 48 -139q51 -62 130 -62q78 0 129 62q47 58 47 139q0 79 -49 139.5t-127 60.5q-79 0 -130 -62q-48 -58 -48 -138z" />
<glyph unicode="p" horiz-adv-x="1233" d="M82 908q0 15 12 20q39 15 149 32q107 17 155 17q39 0 44.5 -51.5t13.5 -51.5h-1q0 5 87 54q95 55 173 55q217 0 347 -143q126 -138 126 -359q0 -214 -126 -355q-130 -146 -341 -146q-77 0 -165 38q-81 35 -81 38h1q-13 0 -13 -30q0 -51 5 -153.5t5 -153.5q0 -32 -33 -32 l-204 -1q-69 0 -89 5q-30 7 -30 37l2 770q0 233 -35 393q-2 10 -2 17zM467 483q0 -85 44 -141q47 -61 130 -61q176 0 176 202q0 80 -49 140q-53 63 -131 63q-80 0 -128 -63q-42 -57 -42 -140z" />
<glyph unicode="q" horiz-adv-x="1212" d="M39 479q0 217 114 362q123 156 334 156q161 0 244 -92q6 -8 20 -18q9 9 10 40v43q3 38 34 38q82 0 185 -10q144 -13 144 -35l-2 -23q-20 -268 -20 -575v-142q0 -81 5 -245.5t5 -245.5q0 -30 -31 -33q-43 -4 -143 -4q-27 0 -81 -4t-81 -4q-20 0 -20 30q0 59 1 177.5 t1 177.5q0 14 -9 14q2 0 2 -1q0 -7 -83 -53q-97 -55 -187 -55q-198 0 -324 155q-118 145 -118 347zM401 498q0 -84 49 -140q52 -59 134 -59t127 58q41 53 41 139q0 87 -45 142q-48 60 -134 60q-80 0 -128 -61q-44 -57 -44 -139z" />
<glyph unicode="r" horiz-adv-x="780" d="M55 914q0 15 15 20q55 6 161 22q158 31 163 31q18 0 23 -63t18 -63q-2 0 -2 1q0 6 84 52q96 52 185 52q56 0 56 -24q0 -29 -6 -82q-6 -57 -7 -82q0 -29 1 -77q2 -59 2 -78q0 -39 -43 -39q-19 0 -55.5 2.5t-54.5 2.5q-83 0 -113 -26t-30 -105q0 -43 1.5 -130.5t1.5 -130.5 q0 -29 4 -86.5t4 -85.5q0 -24 -33 -27q-48 -4 -147 -4q-95 0 -152 6q-33 4 -33 33q0 80 1 239.5t1 239.5q0 235 -43 387q-2 9 -2 15z" />
<glyph unicode="s" horiz-adv-x="729" d="M42 204q0 9 11 11q70 13 141 26q88 28 88 92q0 44 -51 102q-91 101 -95 107q-51 72 -51 152q0 150 152 255q136 93 291 93q16 0 79 -107.5t63 -125.5q0 -10 -15 -27q-28 7 -56 7q-59 0 -99 -26q-48 -30 -48 -85q0 -35 51 -89q77 -81 95 -109q51 -76 51 -163 q0 -51 -20 -108q-23 -63 -58 -92q-74 -64 -173 -108q-107 -46 -197 -46q-20 0 -89.5 108.5t-69.5 132.5z" />
<glyph unicode="t" horiz-adv-x="774" d="M20 670q0 16 2.5 49t2.5 49q0 21 -2.5 64t-2.5 64q0 20 64 22q36 1 39 20q5 28 5 82q0 18 -1 38q-4 129 -4 123q0 116 22 116q27 0 77 -12q57 -13 79 -15q51 -7 154 -19q25 -2 25 -17q0 -40 -6.5 -121t-5.5 -122q0 -49 28 -49q35 0 106 3t107 3q22 0 22 -15q0 -23 -5 -69 t-5 -69q0 -24 1 -70t1 -70q0 -21 -29 -21q-20 0 -67 1.5t-67 1.5h-75q-15 0 -15 -44v-71q1 -48 1 -71q0 -84 19 -116q27 -43 106 -43q25 0 71.5 11.5t65.5 11.5q21 0 21 -22q0 -30 -7.5 -91t-7.5 -89.5t-6 -36.5t-33 -23q-129 -71 -286 -71q-289 0 -289 221q0 66 5 198.5 t5 198.5q0 44 -51 44h-13q-9 -1 -13 -1q-38 0 -38 27z" />
<glyph unicode="u" horiz-adv-x="1194" d="M82 551q0 228 37 360q11 41 41 41q46 0 140 -1t140 -1q31 0 31 -26q0 -7 -2 -21q-21 -136 -21 -276q0 -174 11 -238q18 -110 131 -110q44 0 95.5 39t53.5 81q2 37 2 502q0 33 5 39q6 10 36 10q49 0 147.5 -1t147.5 -1q30 0 35 -15q2 -8 2 -24q0 -74 -7 -222t-7 -222 q0 -72 5 -216t5 -215q0 -27 -25 -34q-38 -10 -161 -10q-109 0 -152 6q-19 3 -24 24l-6 60q-5 46 -14 46q2 0 2 -1q0 -7 -103 -67q-115 -68 -209 -68q-265 0 -314 239q-22 111 -22 322z" />
<glyph unicode="v" horiz-adv-x="1098" d="M49 690q0 39 1 117.5t1 118.5q0 26 35 26q51 0 153.5 -3t153.5 -3q23 0 23 -31q0 -28 -4 -84.5t-4 -85.5q0 -104 6 -170q3 -34 58 -128q57 -99 83 -99q25 0 80 97q53 91 57 124q8 71 8 172q0 29 -6 87.5t-6 86.5q0 31 21 31q24 0 71.5 -1t71.5 -1t72.5 4t72.5 4 q25 0 33 -26q17 -57 17 -232q0 -171 -11 -202q-23 -71 -138 -241q-100 -146 -171 -228q-26 -31 -157 -31q-114 0 -148 8q-21 5 -35 20q-60 65 -171 226q-119 173 -142 237q-25 69 -25 207z" />
<glyph unicode="w" horiz-adv-x="1550" d="M31 700q0 185 10 226q7 26 35 26q46 0 138 -3t138 -3q23 0 23 -33q0 -29 -2 -88.5t-2 -88.5q0 -121 6 -179q2 -22 53.5 -112.5t63.5 -90.5q18 0 66 89q39 75 51 111.5t12 180.5q0 30 -5.5 89.5t-5.5 88.5q0 31 23 31q28 0 111 1l41 1h-3.5t-1.5 0h7h26h21q35 0 90 -2 q22 -3 22 -31q0 -38 -5 -115.5t-5 -115.5q0 -102 8 -129q11 -34 48 -109q45 -90 63 -90t67 91q47 87 50 114q4 38 4 354q0 35 20 35q46 0 138.5 3t138.5 3q27 0 34 -28q11 -42 11 -226q0 -156 -25 -217q-26 -64 -130 -238q-106 -179 -146 -222q-27 -29 -132 -29 q-87 0 -110 6q-19 5 -35 20q-57 56 -176 275q-126 -225 -172 -275q-24 -26 -131 -26q-76 0 -98 6q-50 14 -169 217q-97 166 -139 266q-26 64 -26 217z" />
<glyph unicode="x" horiz-adv-x="1001" d="M37 27q0 29 1 88.5t1 89.5q0 17 18 37q78 81 230 245q-70 67 -139 134q-111 109 -111 129v176q0 26 35 26q40 0 119.5 -3t119.5 -3q20 0 37 -22q55 -73 154 -185q90 109 143 185q15 20 37 20q42 0 125 4t125 4q35 0 35 -26v-176q0 -19 -17 -35q-76 -77 -225 -234 q76 -79 225 -241q17 -19 17 -37v-176q0 -22 -33 -27q-59 -8 -125 -8q-70 0 -117 8q-12 2 -37 20q-49 70 -149 209q-25 -30 -164 -206q-13 -18 -37 -23q-35 -8 -110 -8q-158 0 -158 35z" />
<glyph unicode="y" horiz-adv-x="1102" d="M47 709q0 36 2 108.5t2 108.5q0 26 33 26q51 0 154.5 -3t154.5 -3q21 0 21 -31q0 -28 -3 -84.5t-3 -84.5q0 -126 4 -171q3 -35 60 -130q60 -99 87 -99q23 0 78 98q51 93 55 125q10 88 10 191q0 27 -5 82t-5 83q0 19 21 19q51 0 152.5 4t152.5 4q26 0 35 -26 q14 -46 14 -213q0 -194 -12 -236q-15 -50 -219 -362q-32 -49 -165 -227q-147 -196 -167 -207q-24 -15 -307 -15q-43 0 -58 10q-13 41 -33 97q-16 35 -32 71q-23 52 -23 69q0 19 17 19q278 0 278 127q0 11 -136 199q-141 193 -155 244q-8 29 -8 207z" />
<glyph unicode="z" horiz-adv-x="958" d="M55 257q0 13 15 26q204 174 374 356q-23 0 -70 2t-71 2q-36 0 -109.5 -3.5t-109.5 -3.5q-17 0 -17 12q0 23 31 134.5t31 165.5q0 17 35 17q3 0 119 -13q96 -10 260 -10q54 0 161.5 2t161.5 2q33 0 33 -28v-216q0 -34 -381 -405q294 0 400 20q9 2 13 2q14 0 14 -11v1 q-3 0 -42 -159q-7 -48 -24 -142q-5 -21 -24 -21q-34 0 -96 7q-67 7 -95 8q-65 2 -207 2q-164 0 -232 -4q-14 -1 -70 -6q-44 -5 -71 -5q-18 0 -18 25v29v38q2 49 2 66q0 19 -6.5 56t-6.5 54z" />
<glyph unicode="{" horiz-adv-x="801" d="M61 434q0 13 6.5 39.5t6.5 40.5t-6.5 40.5t-6.5 39.5q0 20 27 20q68 0 122 38q60 42 60 108q0 50 -55 200t-55 205q0 163 110 228q85 51 258 51q130 0 179 -14q19 -6 19 -12q0 -17 -5.5 -51.5t-5.5 -51.5q0 -16 1 -47.5t1 -46.5q0 -23 -23 -23q-27 0 -81.5 7t-82.5 7 q-70 0 -70 -102q0 -48 36 -162t36 -168q0 -78 -34 -161q-44 -105 -113 -105q68 0 117 -74q44 -67 44 -137q0 -63 -43 -199.5t-43 -190.5q0 -106 77 -106q28 0 84 12t82 12q16 0 16 -24q0 -16 -3 -48.5t-3 -49.5t6.5 -50t6.5 -49q0 -6 -19 -11q-49 -15 -179 -15 q-172 0 -258 51q-110 65 -110 228q0 56 53 206.5t53 202.5q0 65 -58 106q-53 36 -120 36q-27 0 -27 20z" />
<glyph unicode="|" horiz-adv-x="637" d="M186 1362q0 27 13 35q43 26 135 26q93 0 96 -30q3 -31 0 -125q-4 -121 -4 -132q0 -77 1 -232t1 -232q0 -474 14 -758l1 -9q1 -15 -13 -20q-200 -25 -217 -25q-11 0 -14 23q1 -7 1 125l1 709q0 108 -7.5 323t-7.5 322z" />
<glyph unicode="}" horiz-adv-x="801" d="M75 -390q0 16 6.5 49t6.5 50t-3 49.5t-3 48.5q0 24 16 24q26 0 82 -12t84 -12q77 0 77 106q0 54 -43.5 190.5t-43.5 199.5q0 70 45 137q49 74 117 74q-69 0 -113 105q-35 83 -35 161q0 54 36.5 168t36.5 162q0 102 -71 102q-27 0 -81.5 -7t-82.5 -7q-22 0 -22 23 q0 15 1 46.5t1 47.5q0 17 -5.5 51.5t-5.5 51.5q0 6 19 12q49 14 178 14q174 0 259 -51q110 -65 110 -228q0 -55 -55.5 -205t-55.5 -200q0 -66 61 -108q54 -38 122 -38q26 0 26 -20q0 -13 -6 -39.5t-6 -40.5t6 -40.5t6 -39.5q0 -20 -26 -20q-68 0 -120 -36q-58 -41 -58 -106 q0 -52 53 -202.5t53 -206.5q0 -163 -110 -228q-86 -51 -259 -51q-129 0 -178 15q-19 5 -19 11z" />
<glyph unicode="~" horiz-adv-x="1106" d="M11 611q0 31 175 155q128 91 224 91q69 0 136 -53t114 -53q59 0 156.5 71t99.5 71q9 0 20 -19q6 -9 92 -139q79 -117 79 -123q0 -16 -80 -79q-60 -48 -97 -72q-118 -78 -209 -78q-81 0 -161.5 48.5t-121.5 48.5q-44 0 -123 -64.5t-86 -64.5q-10 0 -22 16q-27 40 -84 118 q-27 35 -100 107q-12 11 -12 19z" />
<glyph unicode="&#xa1;" horiz-adv-x="573" d="M96 1221q0 84 52.5 139t136.5 55t136 -54.5t52 -139.5t-52 -139t-136 -54t-136.5 54.5t-52.5 138.5zM98 262q0 182 34 343q40 163 79 327q8 37 80 37q39 0 57 -4q26 -6 33 -29q94 -304 94 -365q0 -40 -4 -121.5t-4 -121.5q0 -52 3 -156t3 -156q0 -36 -18 -36q-28 0 -84 4 t-84 4t-84 -4t-84 -4q-19 0 -19 36q0 41 -1 123t-1 123z" />
<glyph unicode="&#xa2;" horiz-adv-x="836" d="M25 612q0 226 146 372t372 146q6 53 25 106q1 0 63 -17q48 -13 48 -22q0 14 -13 -81q152 -40 152 -76q0 -4 -26 -107.5t-30 -115.5q-8 -22 -19 -22q-5 0 -55.5 15.5t-69.5 16.5q-23 -142 -69 -428q13 -2 37 -2q46 0 109 25.5t58 25.5q10 0 19 -20q1 -2 19.5 -121 t18.5 -125q0 -42 -136 -67q-100 -19 -174 -19q-17 -94 -22 -94q-104 0 -116 8q-5 4 -5 14q0 17 16 95q-164 51 -258 187q-90 132 -90 306zM356 614q0 -107 72 -165q20 122 61 368q-133 -43 -133 -203z" />
<glyph unicode="&#xa3;" horiz-adv-x="997" d="M73 507q0 150 11 181q8 23 29 23q11 0 34.5 -1t34.5 -1q-68 119 -68 200q0 161 145 251q123 77 294 77q213 0 354 -102q15 -11 15 -30q0 4 -21 -83q-6 -25 -16 -117q-1 -15 -13 -35q-2 -1 -8 -1q9 0 -105.5 57t-199.5 57q-119 0 -119 -117q0 -62 76 -157q44 -2 275 -2 q36 0 36 -132q0 -135 -45 -135q-75 0 -141 4q6 -29 6 -53q0 -81 -76 -127q70 0 213.5 2t214.5 2q27 0 27 -11q0 -64 -31 -237q-3 -20 -28 -20q-77 0 -230.5 -1t-230.5 -1q-138 0 -252 -10q-128 -12 -108 -12q-13 0 -19 18q-10 29 -24.5 119.5t-14.5 120.5q0 19 25 22 q214 24 214 159q0 16 -3 29q-41 -4 -160 -4h-73q-18 8 -18 67z" />
<glyph unicode="&#xa4;" horiz-adv-x="1221" d="M142 349l177 178v395l-177 177l118 118l194 -194h330l193 194l118 -118l-177 -178v-395l177 -177l-118 -118l-194 194h-330l-193 -194zM483 573l271 1v302h-271v-303z" />
<glyph unicode="&#xa5;" horiz-adv-x="1450" d="M22 933q0 29 20 33q6 1 93 1q-1 25 -7 118q-5 74 -5 119q0 33 20 33q60 0 180.5 -5t180.5 -5q23 0 23 -15q0 -46 -4 -125q-4 -92 -5 -126h426q-14 258 -14 241q0 21 8 24q1 1 25 1q57 0 172 5t172 5q20 0 20 -43q0 -37 2 -113t2 -114h83q9 0 9 -15q0 -14 -2 -42t-2 -42 v-71q0 -16 -153 -11q-54 -79 -156 -241q40 0 120.5 4t121.5 4q18 0 18 -14q0 -28 2 -83.5t2 -82.5q0 -15 -22 -15h-369l-42 -54q-21 -32 -21 -62q0 -38 6 -112.5t6 -111.5q0 -24 -209 -24q-135 0 -178 6q-29 4 -29 29q0 36 9.5 110t9.5 111q0 45 -54 108h-383q-28 0 -28 95 q0 71 -1 59q3 41 23 41q42 0 126 -3t126 -3q-95 146 -151 239q-24 0 -70.5 -2t-69.5 -2q-27 0 -27 56q0 26 -2 57.5t-2 37.5zM610 793q43 -65 138 -187q43 53 118 187h-256z" />
<glyph unicode="&#xa6;" horiz-adv-x="580" d="M158 485q0 32 112 32q132 0 139 -11q4 -8 4 -30q0 -26 -3 -77t-3 -77q0 -161 3 -287q1 -52 9 -180q8 -115 8 -180q0 -11 -19 -13q-112 -13 -232 -13q-8 0 -8 11v427q0 66 -5 199t-5 199zM158 1520q0 32 112 32q132 0 139 -11q4 -8 4 -30q0 -26 -3 -77t-3 -77 q0 -162 3 -288q1 -52 9 -180q8 -114 8 -180q0 -10 -19 -12q-112 -13 -232 -13q-8 0 -8 11v427q0 66 -5 199t-5 199z" />
<glyph unicode="&#xa7;" horiz-adv-x="983" d="M59 569q0 78 34 140q22 41 62 80q33 33 33 37q0 10 -31 40q-38 35 -57 73q-30 61 -30 148q0 172 134 262q115 76 296 76q89 0 178 -27q104 -33 156 -89q12 -13 12 -25q0 -3 -48 -93q-51 -95 -56 -106.5t-12 -11.5q-2 0 -86 53.5t-146 53.5q-99 0 -99 -70q0 -65 135 -125 q125 -57 251 -113q135 -80 135 -190q0 -84 -22 -129q-23 -49 -89 -96q-19 -14 -19 -25q0 -10 29 -36q35 -32 53 -68q29 -58 29 -146q0 -172 -141 -265q-121 -79 -303 -79q-105 0 -202 27q-122 34 -173 98q-18 22 -18 35q0 -1 112 197q7 11 15 11q-5 0 83 -59t160 -59 q111 0 111 80q0 53 -126 99q-191 71 -234 97q-126 78 -126 205zM358 673q0 -41 69 -84q63 -40 108 -40q23 0 43 18t20 41q0 42 -71 88q-66 42 -111 42q-25 0 -41.5 -20t-16.5 -45z" />
<glyph unicode="&#xa8;" horiz-adv-x="758" d="M-37 1451q0 29 33 29q43 0 129 -1.5t128.5 -1.5t42.5 -28q0 -24 -4.5 -73t-4.5 -73q0 -25 6 -72.5t6 -71.5q0 -19 -29 -19q-25 0 -74.5 2.5t-74.5 2.5q-22 0 -65 -3t-65 -3q-26 0 -26 25q0 21 3 63t3 63q0 27 -4 80.5t-4 80.5zM460 1448q0 35 29 35q25 0 75 -4t75 -4 q20 0 60.5 1.5t60.5 1.5q34 0 34 -22q0 -25 -6 -74.5t-6 -74.5q0 -24 7.5 -71t7.5 -70q0 -16 -40 -21q-28 -4 -78 -3q-77 3 -61 3q-20 0 -60 -2t-60 -2q-37 0 -37 38q0 22 2 64t2 64q0 23 -2.5 70.5t-2.5 70.5z" />
<glyph unicode="&#xa9;" horiz-adv-x="1368" d="M84 778q0 258 170 443q175 190 430 190q254 0 429 -191q169 -185 169 -442q0 -254 -170 -439q-175 -189 -428 -189t-428 189q-172 185 -172 439zM209 782q0 -206 133 -354q138 -154 342 -154q202 0 340 155q133 149 133 353t-133 354q-139 156 -340 156q-204 0 -342 -154 q-133 -150 -133 -356zM328 784q0 173 109 285.5t282 112.5q55 0 131 -17q100 -22 100 -57q0 -15 -28.5 -94.5t-35.5 -79.5q-3 0 -7 2q-58 25 -134 25q-67 0 -113 -50t-46 -118q0 -76 43.5 -124t118.5 -48q34 0 84 12.5t51 12.5q6 0 9.5 -6.5t27.5 -93t24 -93.5 q0 -25 -100 -47q-81 -17 -123 -17q-163 0 -278 116t-115 279z" />
<glyph unicode="&#xaa;" horiz-adv-x="1016" d="M25 1001q0 196 104 313q109 122 301 122q95 0 188 -69q40 -29 38 -29q8 0 15 47t27 47q76 0 256 -48q13 -3 13 -13q0 -4 -2 -19q-35 -210 -35 -328q0 -105 12 -274q10 -142 10 -125q0 -28 -28 -31q-21 -2 -121 -2q-22 0 -65 -3t-64 -3q-30 0 -32 45.5t-16 45.5 q9 0 -72 -52t-157 -52q-167 0 -273 133q-99 124 -99 295zM80 274q0 166 8 199q4 14 18 14q69 0 207 -4t207 -4t206 3t206 3q15 0 15 -16q0 -12 -9 -100q3 -40 -2 -109q-3 -11 -12 -11q-72 0 -217.5 5.5t-219.5 5.5q-65 0 -194.5 -5t-194.5 -5q-18 0 -18 24zM348 1014 q0 -71 37 -117q39 -49 109 -49q61 0 98 55q33 49 33 113q0 63 -35 110q-38 52 -98 52q-65 0 -106 -51q-38 -47 -38 -113z" />
<glyph unicode="&#xab;" horiz-adv-x="1167" d="M70 457q0 20 3 61t3 62q0 18 -3 54t-3 54q0 23 26 35q174 77 369 240q17 14 26 14q7 0 11 -14q6 -25 51 -113q44 -83 44 -89q0 -37 -140 -111q-70 -36 -141 -72q70 -35 139 -70q136 -76 136 -118q0 -5 -5 -17q-34 -60 -88 -191q-5 -14 -13 -14q-9 0 -26 16 q-152 142 -363 238q-26 12 -26 35zM602 457q0 20 3 61t3 62q0 18 -3 54t-3 54q0 23 27 35q208 95 368 240q17 15 26 15q7 0 11 -15q6 -24 52 -113q43 -85 43 -89q0 -36 -139 -110q-71 -37 -141 -73q69 -36 138 -71q136 -76 136 -118q0 -5 -5 -16q-19 -31 -53 -94 q-19 -45 -35 -97q-4 -14 -13 -14t-26 16q-132 133 -362 238q-27 12 -27 35z" />
<glyph unicode="&#xac;" horiz-adv-x="942" d="M119 624v124h704v-416h-124v292h-580z" />
<glyph unicode="&#xad;" horiz-adv-x="870" d="M72 467q0 26 34 145q33 113 48 146q7 16 26 16q39 0 117 -4t117 -4q82 0 271 24q99 13 93 13q21 0 21 -33q0 -31 -14 -81q-12 -40 -23 -81q-4 -50 -19 -145q-3 -14 -24 -14q-38 0 -114.5 1t-115.5 1q-105 0 -282 -19q-10 -1 -54 -8q-35 -6 -55 -6q-26 0 -26 49z" />
<glyph unicode="&#xae;" horiz-adv-x="1368" d="M84 778q0 257 169 442q175 191 429 191q255 0 429 -190q169 -185 169 -443q0 -255 -170 -440q-175 -188 -428 -188q-252 0 -427 189q-171 185 -171 439zM209 776q0 -189 104 -315q8 -10 18 -10q13 0 15 16q12 91 12 324q0 248 -14 350q-135 -142 -135 -365zM379 391 q130 -117 303 -117q169 0 283 93q14 11 16 23l-6 5h-160q-16 0 -22 15q-32 77 -97 233q-9 22 -24 26q-5 1 -39 1t-38 -2q-13 -4 -13 -29q0 -41 7 -122.5t7 -122.5q0 -6 -10 -6q-20 0 -62 3.5t-63 3.5q-41 0 -82 -4zM416 1199q3 -9 10 -9q21 0 62.5 3t62.5 3q228 0 317 -26 q176 -53 176 -226q0 -85 -27 -133t-97 -94q-14 -9 -14 -18q0 -2 128 -265q123 142 123 342q0 213 -130 361q-135 155 -345 155q-150 0 -258 -80q-8 -6 -8 -13zM575 897q0 -15 1 -43q2 -31 2 -43q55 -8 94 -8q129 0 129 106q0 77 -46 103q-31 18 -112 18q-54 0 -63 -14 q0 -20 -2.5 -59.5t-2.5 -59.5z" />
<glyph unicode="&#xaf;" horiz-adv-x="758" d="M22 1107q0 19 36 123q35 100 46 122q8 14 25 14q32 0 95.5 -5.5t95.5 -5.5q68 0 204.5 19t202.5 19q19 0 19 -16q0 -18 -37 -142q-5 -42 -21 -121q-4 -12 -24 -12q-37 0 -111 2t-111 2q-87 0 -278 -23q-119 -14 -113 -14q-29 0 -29 38z" />
<glyph unicode="&#xb0;" horiz-adv-x="852" d="M61 1049q0 154 103 266q105 117 258 117q154 0 260 -116q102 -112 102 -267t-103 -266q-106 -113 -259 -113q-152 0 -258 114q-103 111 -103 265zM262 1049q0 -71 44 -123q47 -56 116 -56q74 0 118 52t44 127q0 77 -42 128q-45 56 -120 56q-73 0 -118 -57 q-42 -53 -42 -127z" />
<glyph unicode="&#xb1;" horiz-adv-x="838" d="M68 190v123h704v-123h-704zM70 650v114h290v264h119v-264h289v-114h-289v-254h-119v254h-290z" />
<glyph unicode="&#xb2;" horiz-adv-x="811" d="M32 586q0 21 52 27q36 1 71 3q50 49 121 155q81 122 81 171q0 59 -58 59q-59 0 -136 -40.5t-69 -40.5l-11 4q-2 1 -25 99.5t-23 110.5q0 37 143 68q117 25 180 25q87 0 158 -32q107 -51 135 -78q49 -48 49 -146q0 -159 -212 -344q44 0 137 6q90 6 136 6q19 0 19 -109 q0 -97 -13 -141q-3 -9 -19 -9q-42 0 -126 7t-126 7q-68 0 -202.5 -5.5t-201.5 -5.5q-19 0 -26 27q-34 137 -34 176z" />
<glyph unicode="&#xb3;" horiz-adv-x="795" d="M32 446q0 -21 43 138q16 58 25 58q12 0 82.5 -22t111.5 -22q146 0 146 77q0 80 -162 80q-26 0 -67 -2t-51 -2q-42 0 -42 23q0 148 30 148q27 0 79 -6t79 -6q69 0 69 57q0 64 -126 64q-34 0 -90 -14t-66 -14q-6 0 -11 20q-12 53 -12 146q0 36 124 56q85 14 157 14 q126 0 228 -48q130 -61 130 -172q0 -130 -119 -186q151 -56 151 -203q0 -137 -125 -203q-97 -50 -249 -50q-63 0 -185 19q-150 23 -150 50z" />
<glyph unicode="&#xb4;" horiz-adv-x="758" d="M106 1229q0 14 21 22q49 19 190 99q61 44 185 131q6 5 20 10q7 -2 17 -10q23 -24 73 -68q28 -16 82 -51q16 -11 16 -20q0 -8 -14 -21q-88 -83 -264 -157.5t-295 -80.5h-9q-19 -1 -19 21q0 8 2 25t2 26q0 12 -3.5 37t-3.5 37z" />
<glyph unicode="&#xb6;" horiz-adv-x="1204" d="M66 895q0 246 143 390.5t389 144.5q104 0 280 -28q230 -36 230 -85q0 -95 -1 -285t-1 -284q0 -575 -444 -756q-161 -66 -328 -66q-44 0 -55 29q-24 57 -24 77q0 18 24 21q82 8 164 15q93 11 161 41q209 91 287 308q55 155 55 432q0 164 -4 228q-24 42 -102 49 q0 -336 -21 -475q-47 -320 -256 -434q-124 -68 -275 -68q-93 0 -93 152q0 39 21 39q8 0 24 -6q61 -23 153 -23q129 0 196.5 88t67.5 145q0 27 -15 27q7 0 -77 -32.5t-139 -32.5q-171 0 -268 109q-92 105 -92 280zM418 913q0 -87 41 -140q45 -60 129 -60q43 0 92 18 q10 50 10 143q0 44 -2 130.5t-2 130.5q0 16 -53 16q-102 0 -160 -69q-55 -65 -55 -169z" />
<glyph unicode="&#xb7;" horiz-adv-x="575" d="M53 739q0 98 68 168t166 70t166.5 -69.5t68.5 -168.5q0 -98 -68.5 -168.5t-166.5 -70.5q-97 0 -165.5 71t-68.5 168z" />
<glyph unicode="&#xb8;" horiz-adv-x="758" d="M115 -314q0 3 47 54q15 24 31 47q23 35 36 35q4 0 31.5 -21t50.5 -21q33 0 59 24.5t26 57.5q0 84 -81 132l193 -23q22 -27 63 -84q0 -301 -288 -301q-36 0 -100 35q-68 37 -68 65z" />
<glyph unicode="&#xb9;" horiz-adv-x="546" d="M32 948v155q0 15 17 22q87 35 133.5 80t52.5 45q55 0 165 -22q64 -14 64 -22q0 1 -1 -15q-14 -125 -14 -374q0 -65 1 -193.5t1 -192.5q0 -34 -38 -34q-41 0 -122.5 -1.5t-121.5 -1.5q-27 0 -27 20q0 83 6 248.5t6 248.5q0 14 -16 18q-12 3 -35 1q-30 -2 -29 -2 q-42 0 -42 20z" />
<glyph unicode="&#xba;" horiz-adv-x="938" d="M39 993q0 173 128 309t300 136q183 0 307 -131q121 -129 121 -314q0 -173 -127.5 -307.5t-300.5 -134.5q-189 0 -308.5 126t-119.5 316zM78 274q0 167 8 199q4 14 18 14q62 0 186.5 -4t186.5 -4t185.5 3t185.5 3q15 0 15 -16q0 -12 -9 -100q3 -40 -2 -109q-3 -11 -12 -11 l-11 1q-200 10 -385 10q-58 0 -174 -5t-174 -5q-18 0 -18 24zM326 995q0 -170 143 -170q67 0 104 53q33 47 33 117q0 176 -137 176q-70 0 -109 -55q-34 -48 -34 -121z" />
<glyph unicode="&#xbb;" horiz-adv-x="1167" d="M54 762q0 11 26 56q31 52 35 61q41 99 45 99q9 0 26 -15q163 -146 369 -240q27 -12 27 -35q0 -18 -3.5 -54t-3.5 -54q0 -21 3.5 -62t3.5 -61q0 -22 -29 -35q-219 -99 -360 -238q-17 -16 -28 -16q-9 0 -13 14q-18 57 -86 191q-6 11 -6 18q0 34 111 101q88 53 146 75 q8 2 16 11q-72 38 -144 75q-135 72 -135 109zM585 761q0 10 27 56q32 53 35 62q41 98 45 98q9 0 27 -14q191 -159 368 -240q27 -12 27 -35q0 -18 -3 -55t-3 -55q0 -21 2 -61t2 -60q0 -23 -27 -35q-210 -96 -360 -238q-17 -16 -27 -16t-14 14q-14 46 -88 191q-5 10 -5 16 q0 36 111 103q86 52 148 75q7 2 15 11q-72 38 -145 76q-135 71 -135 107z" />
<glyph unicode="&#xbc;" horiz-adv-x="1760" d="M32 948v155q0 15 17 22q87 35 133.5 80t52.5 45q55 0 165 -22q64 -14 64 -22q0 1 -1 -15q-14 -125 -14 -374q0 -65 1 -193.5t1 -192.5q0 -34 -38 -34q-41 0 -122.5 -1.5t-121.5 -1.5q-27 0 -27 20q0 83 6 248.5t6 248.5q0 14 -16 18q-12 3 -35 1q-30 -2 -29 -2 q-42 0 -42 20zM350 3q152 311 335 690q63 135 187 408q22 51 43 102q36 82 49 82q24 0 111 -51t87 -70q0 -7 -6 -20q-97 -194 -288 -584q-66 -152 -201 -453q-28 -64 -55 -127q-47 -102 -63 -102q-3 0 -92.5 52.5t-98 59.5t-8.5 13zM892 177q0 142 7 157q15 30 70 101 q78 101 80 104q65 90 167 264q8 17 16 33q12 24 22 24q40 0 152 -20q79 -15 159 -29q26 -4 26 -25q0 -35 -6.5 -105t-6.5 -105q0 -25 -1 -83q-1 -54 -1 -83l1 -69q16 0 49.5 4t51.5 4q10 0 10 -68q0 -24 2 -72t2 -72q0 -16 -37 -17q70 2 -49 2q-21 0 -23 -32v-47 q-2 -23 -14 -31q-44 -31 -264 -31q-55 0 -55 24q0 18 8 51.5t8 50.5q0 18 -21 18q-51 0 -152.5 -11t-153.5 -11q-47 0 -47 74zM1095 331q91 21 188 13q7 85 18 257l-4 9q-90 -124 -202 -279z" />
<glyph unicode="&#xbd;" horiz-adv-x="1825" d="M32 948v155q0 15 17 22q87 35 133.5 80t52.5 45q55 0 165 -22q64 -14 64 -22q0 1 -1 -15q-14 -125 -14 -374q0 -65 1 -193.5t1 -192.5q0 -34 -38 -34q-41 0 -122.5 -1.5t-121.5 -1.5q-27 0 -27 20q0 83 6 248.5t6 248.5q0 14 -16 18q-12 3 -35 1q-30 -2 -29 -2 q-42 0 -42 20zM338 3q152 311 335 690q63 135 187 408q22 51 43 102q36 82 49 82q24 0 111 -51t87 -70q0 -7 -6 -20q-97 -194 -288 -584q-66 -152 -201 -453q-28 -64 -55 -127q-47 -102 -63 -102q-3 0 -92.5 52.5t-98 59.5t-8.5 13zM1039 201q0 21 52 27q36 1 71 3 q50 49 121 155q81 122 81 171q0 59 -58 59q-59 0 -136 -40.5t-69 -40.5l-11 4q-2 1 -25 99.5t-23 110.5q0 37 143 68q117 25 180 25q87 0 158 -32q107 -51 135 -78q49 -48 49 -146q0 -159 -212 -344q44 0 137 6q90 6 136 6q19 0 19 -109q0 -97 -13 -141q-3 -9 -19 -9 q-42 0 -126 7t-126 7q-68 0 -202.5 -5.5t-201.5 -5.5q-19 0 -26 27q-34 137 -34 176z" />
<glyph unicode="&#xbe;" horiz-adv-x="1878" d="M-14 446q0 -21 43 138q16 58 25 58q12 0 82.5 -22t111.5 -22q146 0 146 77q0 80 -162 80q-26 0 -67 -2t-51 -2q-42 0 -42 23q0 148 30 148q27 0 79 -6t79 -6q69 0 69 57q0 64 -126 64q-34 0 -90 -14t-66 -14q-6 0 -11 20q-12 53 -12 146q0 36 124 56q85 14 157 14 q126 0 228 -48q130 -61 130 -172q0 -130 -119 -186q151 -56 151 -203q0 -137 -125 -203q-97 -50 -249 -50q-63 0 -185 19q-150 23 -150 50zM525 3q152 311 335 690q63 135 187 408q22 51 43 102q36 82 49 82q24 0 111 -51t87 -70q0 -7 -6 -20q-97 -194 -288 -584 q-66 -152 -201 -453q-28 -64 -55 -127q-47 -102 -63 -102q-3 0 -92.5 52.5t-98 59.5t-8.5 13zM1046 171q0 142 7 157q15 30 70 101q78 101 80 104q65 90 167 264q8 17 16 33q12 24 22 24q40 0 152 -20q79 -15 159 -29q26 -4 26 -25q0 -35 -6.5 -105t-6.5 -105q0 -25 -1 -83 q-1 -54 -1 -83l1 -69q16 0 49.5 4t51.5 4q10 0 10 -68q0 -24 2 -72t2 -72q0 -16 -37 -17q70 2 -49 2q-21 0 -23 -32v-47q-2 -23 -14 -31q-44 -31 -264 -31q-55 0 -55 24q0 18 8 51.5t8 50.5q0 18 -21 18q-51 0 -152.5 -11t-153.5 -11q-47 0 -47 74zM1249 325q91 21 188 13 q7 85 18 257l-4 9q-90 -124 -202 -279z" />
<glyph unicode="&#xbf;" horiz-adv-x="864" d="M33 358q0 250 200 365q152 87 164 174q3 23 6 47q6 21 35 21q102 0 146 12q9 2 13 2q36 0 36 -98q0 -84 -98.5 -210t-98.5 -210q0 -130 137 -130q56 0 145 34.5t81 34.5q44 0 44 -256q0 -28 -3 -42q-14 -67 -168 -104q-111 -27 -213 -27q-182 0 -301 101 q-125 108 -125 286zM303 1219q0 77 53.5 132.5t130.5 55.5t131 -55.5t54 -132.5q0 -78 -53.5 -132.5t-131.5 -54.5q-77 0 -130.5 54.5t-53.5 132.5z" />
<glyph unicode="&#xc0;" horiz-adv-x="1421" d="M6 21q0 26 226 639q245 663 266 729q12 38 28 38q27 0 83.5 -5t84.5 -5q27 0 79.5 3.5t78.5 3.5q19 0 35 -33q49 -105 286 -720q238 -619 238 -646q0 -18 -25 -25q-30 -8 -186 -8q-143 0 -184 8q-34 7 -43 45q-34 144 -53 154q-16 7 -268 7q-170 0 -181 -9 q-17 -16 -38 -107q-19 -83 -46 -90q-34 -8 -228 -8q-153 0 -153 29zM329 1710q0 8 15 19q29 17 86 53q24 23 75 68q6 5 18 10q82 -60 197 -139q120 -69 193 -99q20 -8 20 -20q0 -11 -3 -33t-3 -33t3 -33.5t3 -33.5q0 -19 -22 -19h-8q-130 13 -296 81q-173 72 -263 157 q-15 13 -15 22zM577 562q0 -18 60 -20q31 -2 102 -2q66 0 73 16q2 5 2 14q0 33 -46 182q-45 144 -66 184q-21 -44 -71 -191q-54 -156 -54 -183z" />
<glyph unicode="&#xc1;" horiz-adv-x="1421" d="M6 21q0 26 226 639q245 663 266 729q12 38 28 38q27 0 83.5 -5t84.5 -5q27 0 79.5 3.5t78.5 3.5q19 0 35 -33q49 -105 286 -720q238 -619 238 -646q0 -18 -25 -25q-30 -8 -186 -8q-143 0 -184 8q-34 7 -43 45q-34 144 -53 154q-16 7 -268 7q-170 0 -181 -9 q-17 -16 -38 -107q-19 -83 -46 -90q-34 -8 -228 -8q-153 0 -153 29zM495 1579q0 14 21 22q49 19 190 99q61 44 185 131q6 5 20 10q7 -2 17 -10q23 -24 73 -68q28 -16 82 -51q16 -11 16 -20q0 -8 -14 -21q-88 -83 -264 -157.5t-295 -80.5h-9q-19 -1 -19 21q0 8 2 25t2 26 q0 12 -3.5 37t-3.5 37zM577 562q0 -18 60 -20q31 -2 102 -2q66 0 73 16q2 5 2 14q0 33 -46 182q-45 144 -66 184q-21 -44 -71 -191q-54 -156 -54 -183z" />
<glyph unicode="&#xc2;" horiz-adv-x="1421" d="M6 21q0 26 226 639q245 663 266 729q12 38 28 38q27 0 83.5 -5t84.5 -5q27 0 79.5 3.5t78.5 3.5q19 0 35 -33q49 -105 286 -720q238 -619 238 -646q0 -18 -25 -25q-30 -8 -186 -8q-143 0 -184 8q-34 7 -43 45q-34 144 -53 154q-16 7 -268 7q-170 0 -181 -9 q-17 -16 -38 -107q-19 -83 -46 -90q-34 -8 -228 -8q-153 0 -153 29zM341 1520q0 5 11 18l128 144q79 95 103 161q7 19 25 19h174q17 0 23 -19q21 -66 88 -147q80 -85 161 -176q-2 -3 -77 -35.5t-83 -32.5q-51 0 -204 186l-8 -6q-18 -42 -79 -106q-68 -70 -105 -70 q-1 0 -89 33q-68 26 -68 31zM577 562q0 -18 60 -20q31 -2 102 -2q66 0 73 16q2 5 2 14q0 33 -46 182q-45 144 -66 184q-21 -44 -71 -191q-54 -156 -54 -183z" />
<glyph unicode="&#xc3;" horiz-adv-x="1421" d="M6 21q0 26 226 639q245 663 266 729q12 38 28 38q27 0 83.5 -5t84.5 -5q27 0 79.5 3.5t78.5 3.5q19 0 35 -33q49 -105 286 -720q238 -619 238 -646q0 -18 -25 -25q-30 -8 -186 -8q-143 0 -184 8q-34 7 -43 45q-34 144 -53 154q-16 7 -268 7q-170 0 -181 -9 q-17 -16 -38 -107q-19 -83 -46 -90q-34 -8 -228 -8q-153 0 -153 29zM320 1652q11 42 103 97t140 55q42 0 110 -37t109 -37q35 0 82 35t62 35t70 -71t55 -88l-2 -8q-126 -142 -265 -142q-39 0 -98.5 41.5t-97.5 41.5q-35 0 -73 -34t-50 -34q-28 10 -86 66t-59 80zM577 562 q0 -18 60 -20q31 -2 102 -2q66 0 73 16q2 5 2 14q0 33 -46 182q-45 144 -66 184q-21 -44 -71 -191q-54 -156 -54 -183z" />
<glyph unicode="&#xc4;" horiz-adv-x="1421" d="M6 21q0 26 226 639q245 663 266 729q12 38 28 38q27 0 83.5 -5t84.5 -5q27 0 79.5 3.5t78.5 3.5q19 0 35 -33q49 -105 286 -720q238 -619 238 -646q0 -18 -25 -25q-30 -8 -186 -8q-143 0 -184 8q-34 7 -43 45q-34 144 -53 154q-16 7 -268 7q-170 0 -181 -9 q-17 -16 -38 -107q-19 -83 -46 -90q-34 -8 -228 -8q-153 0 -153 29zM274 1789q0 29 33 29q43 0 129 -1.5t128.5 -1.5t42.5 -28q0 -24 -4.5 -73t-4.5 -73q0 -25 6 -72.5t6 -71.5q0 -19 -29 -19q-25 0 -74.5 2.5t-74.5 2.5q-22 0 -65 -3t-65 -3q-26 0 -26 25q0 21 3 63t3 63 q0 27 -4 80.5t-4 80.5zM577 562q0 -18 60 -20q31 -2 102 -2q66 0 73 16q2 5 2 14q0 33 -46 182q-45 144 -66 184q-21 -44 -71 -191q-54 -156 -54 -183zM771 1786q0 35 29 35q25 0 75 -4t75 -4q20 0 60.5 1.5t60.5 1.5q34 0 34 -22q0 -25 -6 -74.5t-6 -74.5q0 -24 7.5 -71 t7.5 -70q0 -16 -40 -21q-28 -4 -78 -3q-77 3 -61 3q-20 0 -60 -2t-60 -2q-37 0 -37 38q0 22 2 64t2 64q0 23 -2.5 70.5t-2.5 70.5z" />
<glyph unicode="&#xc5;" horiz-adv-x="1421" d="M6 20q0 14 217 617q213 589 254 694q-92 82 -92 207q0 124 96 209q92 82 217 82q126 0 217 -82q95 -85 95 -209q0 -121 -95 -209q75 -181 274 -699q222 -579 222 -605q0 -33 -211 -33q-152 0 -183.5 8t-43.5 45q-12 41 -23 83q-19 64 -30 71q-15 7 -268 7 q-171 0 -181.5 -10t-46.5 -137l-10 -35q-7 -16 -27.5 -24t-179.5 -8q-201 0 -201 28zM567 1538q0 -50 39.5 -87.5t89.5 -37.5q53 0 92 35.5t39 87.5q0 56 -36.5 92.5t-92.5 36.5q-55 0 -93 -36t-38 -91zM577 562q0 -22 162 -22q75 0 75 30q0 33 -46 182q-45 144 -66 184 q-21 -44 -71 -191q-54 -156 -54 -183z" />
<glyph unicode="&#xc6;" horiz-adv-x="1772" d="M-10 27q0 24 4 72.5t4 72.5t8 45q1 2 104 222q108 231 346 771q27 56 72 168q13 39 37 39q56 0 160 -7q110 -8 160 -9q33 -1 186 -4q114 -2 186 -2q60 0 179.5 4t179.5 4q52 0 59 -39q6 -27 16.5 -140t10.5 -141q0 -21 -21 -21q-39 0 -114 8q-79 9 -115 9q-26 1 -94 4 q-59 2 -94 2q-53 0 -65 -25q-5 -12 -5 -77q0 -68 20 -90q17 -19 65 -19q11 0 39.5 1.5t47.5 1.5q106 0 184 6q11 0 50 6q31 4 49 4q24 0 24 -23q0 20 -18 -153q-8 -80 -8 -160q0 -20 -30 -20q1 0 -89 10q-57 6 -201 6q-21 0 -49 2t-35 2q-29 0 -39 -16.5t-10 -69.5 q0 -76 10 -98q18 -38 128 -45q-2 0 147 0q39 0 116.5 9.5t115.5 9.5q22 0 22 -36q0 -42 -17 -158q-19 -126 -33 -149q-12 -19 -33 -19q-9 0 -30 3q-71 10 -344 10q-75 0 -223.5 1t-223.5 1q-13 0 -20 3q-10 5 -10 26q0 42 2 109q3 88 4 110q-73 8 -113 8q-191 0 -266 -8 q-19 -2 -24 -5.5t-13 -19.5q-38 -81 -76 -200q-4 -15 -7.5 -17.5t-18.5 -5.5q-38 -6 -131 -6t-136 6q-30 4 -30 27zM564 581q0 -26 48 -26q30 0 88.5 -1.5t88.5 -1.5q19 0 28 1q4 122 4 202v349q0 55 -23 55q-18 0 -36 -43q-27 -64 -108 -280q-90 -239 -90 -255z" />
<glyph unicode="&#xc7;" horiz-adv-x="1276" d="M55 698q0 304 185 516q193 222 491 222q324 0 508 -199q20 -22 20 -39q0 -19 -69.5 -141t-87.5 -137q-8 -8 -20 -8q-5 0 -50 40q-54 48 -106 75q-79 40 -164 40q-147 0 -235 -110q-81 -102 -81 -252q0 -152 81 -255q88 -112 235 -112q87 0 165 38q51 25 104 70 q44 38 49 38q10 0 20 -11q16 -18 87 -125q73 -111 73 -122q0 -16 -21 -42q-184 -219 -489 -219q-312 0 -506 213q-189 206 -189 520zM446 -314q0 3 47 54q15 24 31 47q23 35 36 35q4 0 31.5 -21t50.5 -21q33 0 59 24.5t26 57.5q0 84 -81 132l193 -23q22 -27 63 -84 q0 -301 -288 -301q-36 0 -100 35q-68 37 -68 65z" />
<glyph unicode="&#xc8;" horiz-adv-x="1157" d="M88 29q0 112 12.5 336.5t12.5 336.5q0 114 -12 425q-3 80 -11 239l-1 14q-2 23 25 23q74 0 222.5 -4t222.5 -4q73 0 220 4t220 4q52 0 60 -39q5 -23 15.5 -139.5t10.5 -141.5q0 -21 -20 -21q-6 0 -21 1q-266 22 -478 22q-53 0 -65 -25q-5 -12 -5 -77q0 -68 20 -90 q17 -19 65 -19q10 0 39 1.5t48 1.5q126 0 255 7l55 5q34 4 54 4q24 0 24 -23q0 21 -18 -153q-8 -80 -8 -160q0 -20 -29 -20l-90 10q-57 6 -260 6h-106q-41 0 -48 -20q-1 -5 -1 -62q0 -76 10 -98q17 -38 128 -45q-2 0 146 0q53 0 157.5 9.5t156.5 9.5q22 0 22 -36 q0 -43 -17 -158q-18 -125 -32 -149q-12 -19 -33 -19q-9 0 -30 3q-73 10 -426 10q-77 0 -229 1t-228 1q-33 0 -33 29zM241 1701q0 8 15 19q29 17 86 53q24 23 75 68q6 5 18 10q82 -60 197 -139q120 -69 193 -99q20 -8 20 -20q0 -11 -3 -33t-3 -33t3 -33.5t3 -33.5 q0 -19 -22 -19h-8q-130 13 -296 81q-173 72 -263 157q-15 13 -15 22z" />
<glyph unicode="&#xc9;" horiz-adv-x="1157" d="M88 29q0 112 12.5 336.5t12.5 336.5q0 114 -12 425q-3 80 -11 239l-1 14q-2 23 25 23q74 0 222.5 -4t222.5 -4q73 0 220 4t220 4q52 0 60 -39q5 -23 15.5 -139.5t10.5 -141.5q0 -21 -20 -21q-6 0 -21 1q-266 22 -478 22q-53 0 -65 -25q-5 -12 -5 -77q0 -68 20 -90 q17 -19 65 -19q10 0 39 1.5t48 1.5q126 0 255 7l55 5q34 4 54 4q24 0 24 -23q0 21 -18 -153q-8 -80 -8 -160q0 -20 -29 -20l-90 10q-57 6 -260 6h-106q-41 0 -48 -20q-1 -5 -1 -62q0 -76 10 -98q17 -38 128 -45q-2 0 146 0q53 0 157.5 9.5t156.5 9.5q22 0 22 -36 q0 -43 -17 -158q-18 -125 -32 -149q-12 -19 -33 -19q-9 0 -30 3q-73 10 -426 10q-77 0 -229 1t-228 1q-33 0 -33 29zM356 1585q0 14 21 22q49 19 190 99q61 44 185 131q6 5 20 10q7 -2 17 -10q23 -24 73 -68q28 -16 82 -51q16 -11 16 -20q0 -8 -14 -21q-88 -83 -264 -157.5 t-295 -80.5h-9q-19 -1 -19 21q0 8 2 25t2 26q0 12 -3.5 37t-3.5 37z" />
<glyph unicode="&#xca;" horiz-adv-x="1157" d="M88 29q0 112 12.5 336.5t12.5 336.5q0 114 -12 425q-3 80 -11 239l-1 14q-2 23 25 23q74 0 222.5 -4t222.5 -4q73 0 220 4t220 4q52 0 60 -39q5 -23 15.5 -139.5t10.5 -141.5q0 -21 -20 -21q-6 0 -21 1q-266 22 -478 22q-53 0 -65 -25q-5 -12 -5 -77q0 -68 20 -90 q17 -19 65 -19q10 0 39 1.5t48 1.5q126 0 255 7l55 5q34 4 54 4q24 0 24 -23q0 21 -18 -153q-8 -80 -8 -160q0 -20 -29 -20l-90 10q-57 6 -260 6h-106q-41 0 -48 -20q-1 -5 -1 -62q0 -76 10 -98q17 -38 128 -45q-2 0 146 0q53 0 157.5 9.5t156.5 9.5q22 0 22 -36 q0 -43 -17 -158q-18 -125 -32 -149q-12 -19 -33 -19q-9 0 -30 3q-73 10 -426 10q-77 0 -229 1t-228 1q-33 0 -33 29zM233 1506q0 5 11 18l128 144q79 95 103 161q7 19 25 19h174q17 0 23 -19q21 -66 88 -147q80 -85 161 -176q-2 -3 -77 -35.5t-83 -32.5q-51 0 -204 186 l-8 -6q-18 -42 -79 -106q-68 -70 -105 -70q-1 0 -89 33q-68 26 -68 31z" />
<glyph unicode="&#xcb;" horiz-adv-x="1157" d="M88 29q0 112 12.5 336.5t12.5 336.5q0 114 -12 425q-3 80 -11 239l-1 14q-2 23 25 23q74 0 222.5 -4t222.5 -4q73 0 220 4t220 4q52 0 60 -39q5 -23 15.5 -139.5t10.5 -141.5q0 -21 -20 -21q-6 0 -21 1q-266 22 -478 22q-53 0 -65 -25q-5 -12 -5 -77q0 -68 20 -90 q17 -19 65 -19q10 0 39 1.5t48 1.5q126 0 255 7l55 5q34 4 54 4q24 0 24 -23q0 21 -18 -153q-8 -80 -8 -160q0 -20 -29 -20l-90 10q-57 6 -260 6h-106q-41 0 -48 -20q-1 -5 -1 -62q0 -76 10 -98q17 -38 128 -45q-2 0 146 0q53 0 157.5 9.5t156.5 9.5q22 0 22 -36 q0 -43 -17 -158q-18 -125 -32 -149q-12 -19 -33 -19q-9 0 -30 3q-73 10 -426 10q-77 0 -229 1t-228 1q-33 0 -33 29zM179 1768q0 29 33 29q43 0 129 -1.5t128.5 -1.5t42.5 -28q0 -24 -4.5 -73t-4.5 -73q0 -25 6 -72.5t6 -71.5q0 -19 -29 -19q-25 0 -74.5 2.5t-74.5 2.5 q-22 0 -65 -3t-65 -3q-26 0 -26 25q0 21 3 63t3 63q0 27 -4 80.5t-4 80.5zM676 1765q0 35 29 35q25 0 75 -4t75 -4q20 0 60.5 1.5t60.5 1.5q34 0 34 -22q0 -25 -6 -74.5t-6 -74.5q0 -24 7.5 -71t7.5 -70q0 -16 -40 -21q-28 -4 -78 -3q-77 3 -61 3q-20 0 -60 -2t-60 -2 q-37 0 -37 38q0 22 2 64t2 64q0 23 -2.5 70.5t-2.5 70.5z" />
<glyph unicode="&#xcc;" horiz-adv-x="610" d="M-60 1708q0 8 15 19q29 17 86 53q24 23 75 68q6 5 18 10q82 -60 197 -139q120 -69 193 -99q20 -8 20 -20q0 -11 -3 -33t-3 -33t3 -33.5t3 -33.5q0 -19 -22 -19h-8q-130 13 -296 81q-173 72 -263 157q-15 13 -15 22zM86 31q0 -16 9 176q18 405 18 532q0 107 -7 321t-7 321 q0 22 23 22q31 0 93.5 -3t93.5 -3t91.5 3t91.5 3q29 0 29 -22q0 -107 -11.5 -321t-11.5 -321q0 -118 6 -355t6 -355q0 -20 -9 -25q-2 -1 -26 -4q-65 -8 -174 -8q-146 0 -186 8q-29 6 -29 31z" />
<glyph unicode="&#xcd;" horiz-adv-x="610" d="M86 31q0 -16 9 176q18 405 18 532q0 107 -7 321t-7 321q0 22 23 22q31 0 93.5 -3t93.5 -3t91.5 3t91.5 3q29 0 29 -22q0 -107 -11.5 -321t-11.5 -321q0 -118 6 -355t6 -355q0 -20 -9 -25q-2 -1 -26 -4q-65 -8 -174 -8q-146 0 -186 8q-29 6 -29 31zM90 1589q0 14 21 22 q49 19 190 99q61 44 185 131q6 5 20 10q7 -2 17 -10q23 -24 73 -68q28 -16 82 -51q16 -11 16 -20q0 -8 -14 -21q-88 -83 -264 -157.5t-295 -80.5h-9q-19 -1 -19 21q0 8 2 25t2 26q0 12 -3.5 37t-3.5 37z" />
<glyph unicode="&#xce;" horiz-adv-x="610" d="M-42 1516q0 5 11 18l128 144q79 95 103 161q7 19 25 19h174q17 0 23 -19q21 -66 88 -147q80 -85 161 -176q-2 -3 -77 -35.5t-83 -32.5q-51 0 -204 186l-8 -6q-18 -42 -79 -106q-68 -70 -105 -70q-1 0 -89 33q-68 26 -68 31zM86 31q0 -16 9 176q18 405 18 532 q0 107 -7 321t-7 321q0 22 23 22q31 0 93.5 -3t93.5 -3t91.5 3t91.5 3q29 0 29 -22q0 -107 -11.5 -321t-11.5 -321q0 -118 6 -355t6 -355q0 -20 -9 -25q-2 -1 -26 -4q-65 -8 -174 -8q-146 0 -186 8q-29 6 -29 31z" />
<glyph unicode="&#xcf;" horiz-adv-x="610" d="M-100 1768q0 29 33 29q43 0 129 -1.5t128.5 -1.5t42.5 -28q0 -24 -4.5 -73t-4.5 -73q0 -25 6 -72.5t6 -71.5q0 -19 -29 -19q-25 0 -74.5 2.5t-74.5 2.5q-22 0 -65 -3t-65 -3q-26 0 -26 25q0 21 3 63t3 63q0 27 -4 80.5t-4 80.5zM86 31q0 -16 9 176q18 405 18 532 q0 107 -7 321t-7 321q0 22 23 22q31 0 93.5 -3t93.5 -3t91.5 3t91.5 3q29 0 29 -22q0 -107 -11.5 -321t-11.5 -321q0 -118 6 -355t6 -355q0 -20 -9 -25q-2 -1 -26 -4q-65 -8 -174 -8q-146 0 -186 8q-29 6 -29 31zM397 1765q0 35 29 35q25 0 75 -4t75 -4q20 0 60.5 1.5 t60.5 1.5q34 0 34 -22q0 -25 -6 -74.5t-6 -74.5q0 -24 7.5 -71t7.5 -70q0 -16 -40 -21q-28 -4 -78 -3q-77 3 -61 3q-20 0 -60 -2t-60 -2q-37 0 -37 38q0 22 2 64t2 64q0 23 -2.5 70.5t-2.5 70.5z" />
<glyph unicode="&#xd0;" horiz-adv-x="1460" d="M4 569q0 19 27 267q7 20 28 20q294 0 333 -11h-11h-9l384 11q22 -15 22 -36q0 -43 -10 -129t-10 -129q0 -18 -20 -18l-9 2q-6 0 -287 7l-86 2h4h3h1l-5 -1h-14l-60 -3q-224 -10 -256 -10q-25 0 -25 28zM96 23q0 110 8.5 330.5t8.5 330.5q0 115 -8.5 344.5t-8.5 343.5 q0 21 29 25q71 8 233 8q308 0 399 -9q237 -24 371 -120q126 -90 199 -252q70 -153 70 -315q0 -294 -189 -510q-167 -193 -469 -203q-58 -2 -319 -2q-49 0 -147.5 3t-147.5 3q-29 0 -29 23zM485 700q0 -58 2 -174.5t2 -175.5q0 -43 160 -43q173 0 272 115q93 109 93 287 q0 169 -101 276q-102 111 -270 111q-154 0 -154 -41q0 -59 -2 -177.5t-2 -177.5z" />
<glyph unicode="&#xd1;" horiz-adv-x="1524" d="M92 31q0 108 10.5 326t10.5 327q0 115 -9.5 344t-9.5 343q0 22 39 22q58 0 143 8q20 2 79 13q50 9 79 9q12 0 37 -34l373 -511q50 -69 151 -202q25 -31 43 -31q13 0 13 78q0 105 -11.5 316t-11.5 317q0 37 21 37q60 0 181 5t181 5q19 0 19 -31q0 -114 -9.5 -342.5 t-9.5 -343.5v-659q0 -27 -29 -27q-24 0 -72.5 -2t-72.5 -2q-26 0 -78 4t-78 4q-18 0 -43 33q-72 97 -324 430q-69 93 -210 274q-4 6 -15 12q-8 -7 -8 -22q0 -116 6.5 -348t6.5 -348q0 -35 -27 -35h-346q-29 0 -29 31zM418 1600q11 42 103 97t140 55q42 0 110 -37t109 -37 q35 0 82 35t62 35t70 -71t55 -88l-2 -8q-126 -142 -265 -142q-39 0 -98.5 41.5t-97.5 41.5q-35 0 -73 -34t-50 -34q-28 10 -86 66t-59 80z" />
<glyph unicode="&#xd2;" d="M55 700q0 311 200 523q204 217 513 217q307 0 512 -217q201 -214 201 -523q0 -312 -199 -523q-203 -214 -514 -214q-309 0 -513 216q-200 211 -200 521zM434 700q0 -153 89 -255q94 -107 245 -107q141 0 240 113q94 108 94 251q0 150 -91 255q-95 110 -243 110 q-141 0 -239 -114q-95 -110 -95 -253zM434 1730q0 8 15 19q29 17 86 53q24 23 75 68q6 5 18 10q82 -60 197 -139q120 -69 193 -99q20 -8 20 -20q0 -11 -3 -33t-3 -33t3 -33.5t3 -33.5q0 -19 -22 -19h-8q-130 13 -296 81q-173 72 -263 157q-15 13 -15 22z" />
<glyph unicode="&#xd3;" d="M55 700q0 311 200 523q204 217 513 217q307 0 512 -217q201 -214 201 -523q0 -312 -199 -523q-203 -214 -514 -214q-309 0 -513 216q-200 211 -200 521zM434 700q0 -153 89 -255q94 -107 245 -107q141 0 240 113q94 108 94 251q0 150 -91 255q-95 110 -243 110 q-141 0 -239 -114q-95 -110 -95 -253zM581 1616q0 14 21 22q49 19 190 99q61 44 185 131q6 5 20 10q7 -2 17 -10q23 -24 73 -68q28 -16 82 -51q16 -11 16 -20q0 -8 -14 -21q-88 -83 -264 -157.5t-295 -80.5h-9q-19 -1 -19 21q0 8 2 25t2 26q0 12 -3.5 37t-3.5 37z" />
<glyph unicode="&#xd4;" d="M55 700q0 311 200 523q204 217 513 217q307 0 512 -217q201 -214 201 -523q0 -312 -199 -523q-203 -214 -514 -214q-309 0 -513 216q-200 211 -200 521zM419 1528q0 5 11 18l128 144q79 95 103 161q7 19 25 19h174q17 0 23 -19q21 -66 88 -147q80 -85 161 -176 q-2 -3 -77 -35.5t-83 -32.5q-51 0 -204 186l-8 -6q-18 -42 -79 -106q-68 -70 -105 -70q-1 0 -89 33q-68 26 -68 31zM434 700q0 -153 89 -255q94 -107 245 -107q141 0 240 113q94 108 94 251q0 150 -91 255q-95 110 -243 110q-141 0 -239 -114q-95 -110 -95 -253z" />
<glyph unicode="&#xd5;" d="M55 700q0 311 200 523q204 217 513 217q307 0 512 -217q201 -214 201 -523q0 -312 -199 -523q-203 -214 -514 -214q-309 0 -513 216q-200 211 -200 521zM408 1635q11 42 103 97t140 55q42 0 110 -37t109 -37q35 0 82 35t62 35t70 -71t55 -88l-2 -8q-126 -142 -265 -142 q-39 0 -98.5 41.5t-97.5 41.5q-35 0 -73 -34t-50 -34q-28 10 -86 66t-59 80zM434 700q0 -153 89 -255q94 -107 245 -107q141 0 240 113q94 108 94 251q0 150 -91 255q-95 110 -243 110q-141 0 -239 -114q-95 -110 -95 -253z" />
<glyph unicode="&#xd6;" d="M55 700q0 311 200 523q204 217 513 217q307 0 512 -217q201 -214 201 -523q0 -312 -199 -523q-203 -214 -514 -214q-309 0 -513 216q-200 211 -200 521zM354 1775q0 29 33 29q43 0 129 -1.5t128.5 -1.5t42.5 -28q0 -24 -4.5 -73t-4.5 -73q0 -25 6 -72.5t6 -71.5 q0 -19 -29 -19q-25 0 -74.5 2.5t-74.5 2.5q-22 0 -65 -3t-65 -3q-26 0 -26 25q0 21 3 63t3 63q0 27 -4 80.5t-4 80.5zM434 700q0 -153 89 -255q94 -107 245 -107q141 0 240 113q94 108 94 251q0 150 -91 255q-95 110 -243 110q-141 0 -239 -114q-95 -110 -95 -253zM851 1772 q0 35 29 35q25 0 75 -4t75 -4q20 0 60.5 1.5t60.5 1.5q34 0 34 -22q0 -25 -6 -74.5t-6 -74.5q0 -24 7.5 -71t7.5 -70q0 -16 -40 -21q-28 -4 -78 -3q-77 3 -61 3q-20 0 -60 -2t-60 -2q-37 0 -37 38q0 22 2 64t2 64q0 23 -2.5 70.5t-2.5 70.5z" />
<glyph unicode="&#xd7;" horiz-adv-x="968" d="M66 375q0 25 219 220q-38 30 -119 110q-95 94 -95 112q0 20 82.5 105.5t103.5 85.5q33 0 221 -222q188 219 221 219q26 0 109 -79t83 -105q0 -22 -99 -116q-86 -81 -125 -108q219 -181 219 -222q0 -27 -79 -109.5t-105 -82.5q-20 0 -115 101q-85 89 -110 125 q-31 -40 -108 -122q-93 -98 -112 -98q-21 0 -106 82.5t-85 103.5z" />
<glyph unicode="&#xd8;" d="M55 700q0 311 200 523q204 217 513 217q307 0 512 -217q201 -214 201 -523q0 -312 -199 -523q-203 -214 -514 -214q-309 0 -513 216q-200 211 -200 521zM68 100q0 13 22 35t851 868q118 124 357 365q8 7 25 15q12 -3 47 -56.5t35 -64.5q0 -12 -25 -39q-61 -63 -184 -187 l-810 -826q-70 -75 -212 -220q-11 -11 -24 -11l-13 5q-69 76 -69 116zM434 700q0 -153 89 -255q94 -107 245 -107q141 0 240 113q94 108 94 251q0 150 -91 255q-95 110 -243 110q-141 0 -239 -114q-95 -110 -95 -253z" />
<glyph unicode="&#xd9;" horiz-adv-x="1391" d="M87 1379q0 24 21 24q61 0 184.5 -5t184.5 -5q25 0 25 -22q0 -132 -8.5 -395.5t-8.5 -395.5q0 -157 33 -212q44 -75 184 -75q205 0 205 199q0 145 -7 435t-7 435q0 31 25 31q59 0 178 5t178 5q29 0 29 -24q0 -115 -9.5 -347t-9.5 -348q0 -32 1 -96.5t1 -96.5 q0 -255 -61 -348q-112 -170 -559 -170q-202 0 -311 31q-174 50 -226 191q-26 69 -26 246q0 41 3 122t3 121q0 116 -11 348t-11 347zM348 1705q0 8 15 19q29 17 86 53q24 23 75 68q6 5 18 10q82 -60 197 -139q120 -69 193 -99q20 -8 20 -20q0 -11 -3 -33t-3 -33t3 -33.5 t3 -33.5q0 -19 -22 -19h-8q-130 13 -296 81q-173 72 -263 157q-15 13 -15 22z" />
<glyph unicode="&#xda;" horiz-adv-x="1391" d="M87 1379q0 24 21 24q61 0 184.5 -5t184.5 -5q25 0 25 -22q0 -132 -8.5 -395.5t-8.5 -395.5q0 -157 33 -212q44 -75 184 -75q205 0 205 199q0 145 -7 435t-7 435q0 31 25 31q59 0 178 5t178 5q29 0 29 -24q0 -115 -9.5 -347t-9.5 -348q0 -32 1 -96.5t1 -96.5 q0 -255 -61 -348q-112 -170 -559 -170q-202 0 -311 31q-174 50 -226 191q-26 69 -26 246q0 41 3 122t3 121q0 116 -11 348t-11 347zM505 1600q0 14 21 22q49 19 190 99q61 44 185 131q6 5 20 10q7 -2 17 -10q23 -24 73 -68q28 -16 82 -51q16 -11 16 -20q0 -8 -14 -21 q-88 -83 -264 -157.5t-295 -80.5h-9q-19 -1 -19 21q0 8 2 25t2 26q0 12 -3.5 37t-3.5 37z" />
<glyph unicode="&#xdb;" horiz-adv-x="1391" d="M87 1379q0 24 21 24q61 0 184.5 -5t184.5 -5q25 0 25 -22q0 -132 -8.5 -395.5t-8.5 -395.5q0 -157 33 -212q44 -75 184 -75q205 0 205 199q0 145 -7 435t-7 435q0 31 25 31q59 0 178 5t178 5q29 0 29 -24q0 -115 -9.5 -347t-9.5 -348q0 -32 1 -96.5t1 -96.5 q0 -255 -61 -348q-112 -170 -559 -170q-202 0 -311 31q-174 50 -226 191q-26 69 -26 246q0 41 3 122t3 121q0 116 -11 348t-11 347zM343 1526q0 5 11 18l128 144q79 95 103 161q7 19 25 19h174q17 0 23 -19q21 -66 88 -147q80 -85 161 -176q-2 -3 -77 -35.5t-83 -32.5 q-51 0 -204 186l-8 -6q-18 -42 -79 -106q-68 -70 -105 -70q-1 0 -89 33q-68 26 -68 31z" />
<glyph unicode="&#xdc;" horiz-adv-x="1391" d="M87 1379q0 24 21 24q61 0 184.5 -5t184.5 -5q25 0 25 -22q0 -132 -8.5 -395.5t-8.5 -395.5q0 -157 33 -212q44 -75 184 -75q205 0 205 199q0 145 -7 435t-7 435q0 31 25 31q59 0 178 5t178 5q29 0 29 -24q0 -115 -9.5 -347t-9.5 -348q0 -32 1 -96.5t1 -96.5 q0 -255 -61 -348q-112 -170 -559 -170q-202 0 -311 31q-174 50 -226 191q-26 69 -26 246q0 41 3 122t3 121q0 116 -11 348t-11 347zM282 1749q0 29 33 29q43 0 129 -1.5t128.5 -1.5t42.5 -28q0 -24 -4.5 -73t-4.5 -73q0 -25 6 -72.5t6 -71.5q0 -19 -29 -19q-25 0 -74.5 2.5 t-74.5 2.5q-22 0 -65 -3t-65 -3q-26 0 -26 25q0 21 3 63t3 63q0 27 -4 80.5t-4 80.5zM779 1746q0 35 29 35q25 0 75 -4t75 -4q20 0 60.5 1.5t60.5 1.5q34 0 34 -22q0 -25 -6 -74.5t-6 -74.5q0 -24 7.5 -71t7.5 -70q0 -16 -40 -21q-28 -4 -78 -3q-77 3 -61 3q-20 0 -60 -2 t-60 -2q-37 0 -37 38q0 22 2 64t2 64q0 23 -2.5 70.5t-2.5 70.5z" />
<glyph unicode="&#xdd;" horiz-adv-x="1272" d="M31 1370q0 33 20 33q61 0 185 -5t186 -5q23 0 23 -15q0 -51 -4.5 -153.5t-4.5 -153.5q0 -30 88 -150q70 -94 115 -145q41 48 109 144q86 120 86 145q0 50 -7.5 151.5t-7.5 151.5q0 21 9 24h25q60 0 180.5 5.5t181.5 5.5q20 0 20 -43q0 -53 2 -159.5t2 -160.5 q0 -43 -16 -75q-131 -259 -357 -545q-32 -42 -32 -76q0 -53 6 -159t6 -158q0 -18 -8 -22q-2 -1 -27 -5q-36 -6 -180 -6q-145 0 -185 6q-28 4 -28 29q0 53 9 161.5t9 162.5q0 32 -24 69q-121 171 -346 524q-23 39 -23 64q0 60 -6 180t-6 180zM417 1585q0 14 21 22 q49 19 190 99q61 44 185 131q6 5 20 10q7 -2 17 -10q23 -24 73 -68q28 -16 82 -51q16 -11 16 -20q0 -8 -14 -21q-88 -83 -264 -157.5t-295 -80.5h-9q-19 -1 -19 21q0 8 2 25t2 26q0 12 -3.5 37t-3.5 37z" />
<glyph unicode="&#xde;" horiz-adv-x="1335" d="M85 1371q-2 22 32 22q29 0 87 5t87 5h188q29 0 29 -35q0 -68 -4 -108q114 0 256 -5q237 -6 383.5 -150t146.5 -380q0 -243 -127 -392q-136 -159 -375 -159q-40 0 -120.5 4t-120.5 4q-28 0 -34 -12q-3 -8 -3 -25q0 -21 6 -64t6 -65q0 -23 -21 -23q-61 0 -183 3.5t-183 3.5 q-29 0 -29 29q0 111 3.5 333.5t3.5 333.5q0 107 -13 396q-4 88 -14 264zM488 860q0 -58 3 -175t3 -175q0 -21 180 -21q217 0 217 220q0 233 -227 233q-168 0 -175 -18q-1 -3 -1 -64z" />
<glyph unicode="&#xdf;" horiz-adv-x="1114" d="M74 33q0 98 6 295.5t6 296.5q0 42 -4 127.5t-4 128.5q0 224 105 370q119 164 335 164q142 0 247 -75q118 -84 118 -220q0 -65 -25 -132q-27 -75 -72 -111q281 -116 281 -394q0 -251 -207 -403q-233 -172 -301 -172q-14 0 -31 33q-29 58 -104 178q0 -19 3 -56.5t3 -56.5 q0 -27 -103 -27q-127 0 -212 21q-41 10 -41 33zM410 985q0 -27 1 -81.5t1 -80.5q194 68 194 213q0 125 -88 125q-51 0 -82 -66q-26 -53 -26 -110zM417 532q0 -62 3 -182q2 -126 2 -182q108 23 188 94q90 80 90 182t-80 154q-70 44 -175 42l-23 -1q-5 -36 -5 -107z" />
<glyph unicode="&#xe0;" horiz-adv-x="1204" d="M43 475q0 231 125 372q130 146 356 146q157 0 248 -110q4 -5 7 -5q9 0 20.5 48.5t27.5 48.5q37 0 141 -21q99 -20 142 -34q15 -6 15 -16q0 -4 -3 -21q-32 -181 -32 -383q0 -77 9 -229t9 -228q0 -40 -35 -43q-124 -9 -284 -9q-19 0 -25.5 57.5t-15.5 58.5q-8 -4 -21 -17 q-112 -113 -240 -113q-195 0 -323 154q-121 144 -121 344zM250 1327q0 8 15 19q29 17 86 53q24 23 75 68q6 5 18 10q82 -60 197 -139q120 -69 193 -99q20 -8 20 -20q0 -11 -3 -33t-3 -33t3 -33.5t3 -33.5q0 -19 -22 -19h-8q-130 13 -296 81q-173 72 -263 157q-15 13 -15 22z M383 494q0 -81 56 -139t136 -58q85 0 139 55.5t54 141.5q0 85 -53.5 140.5t-139.5 55.5t-139 -55t-53 -141z" />
<glyph unicode="&#xe1;" horiz-adv-x="1204" d="M43 475q0 231 125 372q130 146 356 146q157 0 248 -110q4 -5 7 -5q9 0 20.5 48.5t27.5 48.5q37 0 141 -21q99 -20 142 -34q15 -6 15 -16q0 -4 -3 -21q-32 -181 -32 -383q0 -77 9 -229t9 -228q0 -40 -35 -43q-124 -9 -284 -9q-19 0 -25.5 57.5t-15.5 58.5q-8 -4 -21 -17 q-112 -113 -240 -113q-195 0 -323 154q-121 144 -121 344zM383 494q0 -81 56 -139t136 -58q85 0 139 55.5t54 141.5q0 85 -53.5 140.5t-139.5 55.5t-139 -55t-53 -141zM391 1217q0 14 21 22q49 19 190 99q61 44 185 131q6 5 20 10q7 -2 17 -10q23 -24 73 -68q28 -16 82 -51 q16 -11 16 -20q0 -8 -14 -21q-88 -83 -264 -157.5t-295 -80.5h-9q-19 -1 -19 21q0 8 2 25t2 26q0 12 -3.5 37t-3.5 37z" />
<glyph unicode="&#xe2;" horiz-adv-x="1204" d="M43 475q0 231 125 372q130 146 356 146q157 0 248 -110q4 -5 7 -5q9 0 20.5 48.5t27.5 48.5q37 0 141 -21q99 -20 142 -34q15 -6 15 -16q0 -4 -3 -21q-32 -181 -32 -383q0 -77 9 -229t9 -228q0 -40 -35 -43q-124 -9 -284 -9q-19 0 -25.5 57.5t-15.5 58.5q-8 -4 -21 -17 q-112 -113 -240 -113q-195 0 -323 154q-121 144 -121 344zM247 1135q0 5 11 18l128 144q79 95 103 161q7 19 25 19h174q17 0 23 -19q21 -66 88 -147q80 -85 161 -176q-2 -3 -77 -35.5t-83 -32.5q-51 0 -204 186l-8 -6q-18 -42 -79 -106q-68 -70 -105 -70q-1 0 -89 33 q-68 26 -68 31zM383 494q0 -81 56 -139t136 -58q85 0 139 55.5t54 141.5q0 85 -53.5 140.5t-139.5 55.5t-139 -55t-53 -141z" />
<glyph unicode="&#xe3;" horiz-adv-x="1204" d="M43 475q0 231 125 372q130 146 356 146q157 0 248 -110q4 -5 7 -5q9 0 20.5 48.5t27.5 48.5q37 0 141 -21q99 -20 142 -34q15 -6 15 -16q0 -4 -3 -21q-32 -181 -32 -383q0 -77 9 -229t9 -228q0 -40 -35 -43q-124 -9 -284 -9q-19 0 -25.5 57.5t-15.5 58.5q-8 -4 -21 -17 q-112 -113 -240 -113q-195 0 -323 154q-121 144 -121 344zM236 1238q11 42 103 97t140 55q42 0 110 -37t109 -37q35 0 82 35t62 35t70 -71t55 -88l-2 -8q-126 -142 -265 -142q-39 0 -98.5 41.5t-97.5 41.5q-35 0 -73 -34t-50 -34q-28 10 -86 66t-59 80zM383 494 q0 -81 56 -139t136 -58q85 0 139 55.5t54 141.5q0 85 -53.5 140.5t-139.5 55.5t-139 -55t-53 -141z" />
<glyph unicode="&#xe4;" horiz-adv-x="1204" d="M43 475q0 231 125 372q130 146 356 146q157 0 248 -110q4 -5 7 -5q9 0 20.5 48.5t27.5 48.5q37 0 141 -21q99 -20 142 -34q15 -6 15 -16q0 -4 -3 -21q-32 -181 -32 -383q0 -77 9 -229t9 -228q0 -40 -35 -43q-124 -9 -284 -9q-19 0 -25.5 57.5t-15.5 58.5q-8 -4 -21 -17 q-112 -113 -240 -113q-195 0 -323 154q-121 144 -121 344zM178 1385q0 29 33 29q43 0 129 -1.5t128.5 -1.5t42.5 -28q0 -24 -4.5 -73t-4.5 -73q0 -25 6 -72.5t6 -71.5q0 -19 -29 -19q-25 0 -74.5 2.5t-74.5 2.5q-22 0 -65 -3t-65 -3q-26 0 -26 25q0 21 3 63t3 63 q0 27 -4 80.5t-4 80.5zM383 494q0 -81 56 -139t136 -58q85 0 139 55.5t54 141.5q0 85 -53.5 140.5t-139.5 55.5t-139 -55t-53 -141zM675 1382q0 35 29 35q25 0 75 -4t75 -4q20 0 60.5 1.5t60.5 1.5q34 0 34 -22q0 -25 -6 -74.5t-6 -74.5q0 -24 7.5 -71t7.5 -70 q0 -16 -40 -21q-28 -4 -78 -3q-77 3 -61 3q-20 0 -60 -2t-60 -2q-37 0 -37 38q0 22 2 64t2 64q0 23 -2.5 70.5t-2.5 70.5z" />
<glyph unicode="&#xe5;" horiz-adv-x="1204" d="M43 475q0 231 125 372q130 146 356 146q157 0 248 -110q4 -5 7 -5q9 0 20.5 48.5t27.5 48.5q37 0 141 -21q99 -20 142 -34q15 -6 15 -16q0 -4 -3 -21q-32 -181 -32 -383q0 -77 9 -229t9 -228q0 -40 -35 -43q-124 -9 -284 -9q-19 0 -25.5 57.5t-15.5 58.5q-8 -4 -21 -17 q-112 -113 -240 -113q-195 0 -323 154q-121 144 -121 344zM356 1297q0 101 75 170t177 69q103 0 178 -67q76 -70 76 -172q0 -100 -76.5 -167t-177.5 -67q-100 0 -176 67.5t-76 166.5zM383 494q0 -81 56 -139t136 -58q85 0 139 55.5t54 141.5q0 85 -53.5 140.5t-139.5 55.5 t-139 -55t-53 -141zM504 1297q0 -41 31.5 -71t72.5 -30q43 0 76 29t33 72q0 45 -31.5 75.5t-77.5 30.5q-44 0 -74 -31t-30 -75z" />
<glyph unicode="&#xe6;" horiz-adv-x="1737" d="M43 475q0 231 125 372q130 146 356 146q129 0 215 -80q4 -3 7 -3q12 0 19.5 48t29.5 48q21 0 64 -4.5t65 -4.5q19 0 57.5 3.5t56.5 3.5q16 0 26 -24.5t14 -24.5q2 0 5 1q87 50 168 50q193 0 327 -135t134 -328q0 -105 -65 -115q-28 -4 -264 -26q-104 -11 -312 -27 q14 -64 94 -99q65 -28 140 -28q88 0 179 48l76 48q21 -10 70 -102t49 -117q0 -7 -14 -23q-113 -125 -379 -125q-53 0 -150 32.5t-100 32.5q-14 0 -14 -28q0 -19 -41 -22q24 2 -119 2q-19 0 -57 -1.5t-57 -1.5q-18 0 -21.5 41.5t-11.5 42.5q-8 -4 -23 -16q-97 -75 -205 -75 q-198 0 -324 148q-120 140 -120 343zM383 494q0 -81 56 -139t136 -58q85 0 139 55.5t54 141.5q0 85 -53.5 140.5t-139.5 55.5t-139 -55t-53 -141zM1055 592q0 -27 27 -27q91 0 247 23q33 5 33 16q0 62 -44 109t-105 47q-63 0 -110.5 -52t-47.5 -116z" />
<glyph unicode="&#xe7;" horiz-adv-x="852" d="M37 492q0 219 143.5 368.5t362.5 149.5q149 0 262 -64q26 -14 26 -27t-30 -118q-28 -101 -36.5 -122t-17.5 -21q-1 0 -60.5 16t-96.5 16q-89 0 -142 -53.5t-53 -142.5q0 -92 58 -144.5t151 -52.5q44 0 99 22.5t52 22.5q17 0 44 -127q23 -116 23 -154t-124 -65 q-96 -21 -155 -21q-220 0 -363 148t-143 369zM247 -294q0 3 47 54q15 24 31 47q23 35 36 35q4 0 31.5 -21t50.5 -21q33 0 59 24.5t26 57.5q0 84 -81 132l193 -23q22 -27 63 -84q0 -301 -288 -301q-36 0 -100 35q-68 37 -68 65z" />
<glyph unicode="&#xe8;" horiz-adv-x="1026" d="M41 487q0 230 134 377q138 152 366 152q192 0 326 -140t134 -333q0 -101 -65 -115q-11 -2 -207 -22q-118 -13 -352 -31q14 -65 85 -99q58 -28 132 -28q89 0 179 48l76 48q21 -10 70.5 -102t49.5 -117q0 -7 -15 -23q-122 -131 -379 -131q-238 0 -384 139 q-150 141 -150 377zM123 1331q0 8 15 19q29 17 86 53q24 23 75 68q6 5 18 10q82 -60 197 -139q120 -69 193 -99q20 -8 20 -20q0 -11 -3 -33t-3 -33t3 -33.5t3 -33.5q0 -19 -22 -19h-8q-130 13 -296 81q-173 72 -263 157q-15 13 -15 22zM360 592q0 -27 28 -27q74 0 230 23 q33 5 33 16q0 62 -44 109t-105 47q-63 0 -104 -53q-38 -49 -38 -115z" />
<glyph unicode="&#xe9;" horiz-adv-x="1026" d="M41 487q0 230 134 377q138 152 366 152q192 0 326 -140t134 -333q0 -101 -65 -115q-11 -2 -207 -22q-118 -13 -352 -31q14 -65 85 -99q58 -28 132 -28q89 0 179 48l76 48q21 -10 70.5 -102t49.5 -117q0 -7 -15 -23q-122 -131 -379 -131q-238 0 -384 139 q-150 141 -150 377zM294 1221q0 14 21 22q49 19 190 99q61 44 185 131q6 5 20 10q7 -2 17 -10q23 -24 73 -68q28 -16 82 -51q16 -11 16 -20q0 -8 -14 -21q-88 -83 -264 -157.5t-295 -80.5h-9q-19 -1 -19 21q0 8 2 25t2 26q0 12 -3.5 37t-3.5 37zM360 592q0 -27 28 -27 q74 0 230 23q33 5 33 16q0 62 -44 109t-105 47q-63 0 -104 -53q-38 -49 -38 -115z" />
<glyph unicode="&#xea;" horiz-adv-x="1026" d="M41 487q0 230 134 377q138 152 366 152q192 0 326 -140t134 -333q0 -101 -65 -115q-11 -2 -207 -22q-118 -13 -352 -31q14 -65 85 -99q58 -28 132 -28q89 0 179 48l76 48q21 -10 70.5 -102t49.5 -117q0 -7 -15 -23q-122 -131 -379 -131q-238 0 -384 139 q-150 141 -150 377zM161 1139q0 5 11 18l128 144q79 95 103 161q7 19 25 19h174q17 0 23 -19q21 -66 88 -147q80 -85 161 -176q-2 -3 -77 -35.5t-83 -32.5q-51 0 -204 186l-8 -6q-18 -42 -79 -106q-68 -70 -105 -70q-1 0 -89 33q-68 26 -68 31zM360 592q0 -27 28 -27 q74 0 230 23q33 5 33 16q0 62 -44 109t-105 47q-63 0 -104 -53q-38 -49 -38 -115z" />
<glyph unicode="&#xeb;" horiz-adv-x="1026" d="M41 487q0 230 134 377q138 152 366 152q192 0 326 -140t134 -333q0 -101 -65 -115q-11 -2 -207 -22q-118 -13 -352 -31q14 -65 85 -99q58 -28 132 -28q89 0 179 48l76 48q21 -10 70.5 -102t49.5 -117q0 -7 -15 -23q-122 -131 -379 -131q-238 0 -384 139 q-150 141 -150 377zM127 1398q0 29 33 29q43 0 129 -1.5t128.5 -1.5t42.5 -28q0 -24 -4.5 -73t-4.5 -73q0 -25 6 -72.5t6 -71.5q0 -19 -29 -19q-25 0 -74.5 2.5t-74.5 2.5q-22 0 -65 -3t-65 -3q-26 0 -26 25q0 21 3 63t3 63q0 27 -4 80.5t-4 80.5zM360 592q0 -27 28 -27 q74 0 230 23q33 5 33 16q0 62 -44 109t-105 47q-63 0 -104 -53q-38 -49 -38 -115zM624 1395q0 35 29 35q25 0 75 -4t75 -4q20 0 60.5 1.5t60.5 1.5q34 0 34 -22q0 -25 -6 -74.5t-6 -74.5q0 -24 7.5 -71t7.5 -70q0 -16 -40 -21q-28 -4 -78 -3q-77 3 -61 3q-20 0 -60 -2 t-60 -2q-37 0 -37 38q0 22 2 64t2 64q0 23 -2.5 70.5t-2.5 70.5z" />
<glyph unicode="&#xec;" horiz-adv-x="563" d="M-53 1327q0 8 15 19q29 17 86 53q24 23 75 68q6 5 18 10q82 -60 197 -139q120 -69 193 -99q20 -8 20 -20q0 -11 -3 -33t-3 -33t3 -33.5t3 -33.5q0 -19 -22 -19h-8q-130 13 -296 81q-173 72 -263 157q-15 13 -15 22zM81 958q0 23 28 23q29 0 87.5 -9t88.5 -9t89.5 9 t88.5 9q28 0 28 -23q0 -77 -17 -247t-17 -252q0 -70 3 -209.5t3 -209.5q0 -40 -25 -40t-76.5 4t-76.5 4t-75 -4t-75 -4q-29 0 -29 52q0 68 3.5 203.5t3.5 203.5q0 155 -31 479q-1 14 -1 20z" />
<glyph unicode="&#xed;" horiz-adv-x="563" d="M38 1217q0 14 21 22q49 19 190 99q61 44 185 131q6 5 20 10q7 -2 17 -10q23 -24 73 -68q28 -16 82 -51q16 -11 16 -20q0 -8 -14 -21q-88 -83 -264 -157.5t-295 -80.5h-9q-19 -1 -19 21q0 8 2 25t2 26q0 12 -3.5 37t-3.5 37zM81 958q0 23 28 23q29 0 87.5 -9t88.5 -9 t89.5 9t88.5 9q28 0 28 -23q0 -77 -17 -247t-17 -252q0 -70 3 -209.5t3 -209.5q0 -40 -25 -40t-76.5 4t-76.5 4t-75 -4t-75 -4q-29 0 -29 52q0 68 3.5 203.5t3.5 203.5q0 155 -31 479q-1 14 -1 20z" />
<glyph unicode="&#xee;" horiz-adv-x="563" d="M-72 1139q0 5 11 18l128 144q79 95 103 161q7 19 25 19h174q17 0 23 -19q21 -66 88 -147q80 -85 161 -176q-2 -3 -77 -35.5t-83 -32.5q-51 0 -204 186l-8 -6q-18 -42 -79 -106q-68 -70 -105 -70q-1 0 -89 33q-68 26 -68 31zM81 958q0 23 28 23q29 0 87.5 -9t88.5 -9 t89.5 9t88.5 9q28 0 28 -23q0 -77 -17 -247t-17 -252q0 -70 3 -209.5t3 -209.5q0 -40 -25 -40t-76.5 4t-76.5 4t-75 -4t-75 -4q-29 0 -29 52q0 68 3.5 203.5t3.5 203.5q0 155 -31 479q-1 14 -1 20z" />
<glyph unicode="&#xef;" horiz-adv-x="563" d="M-130 1378q0 29 33 29q43 0 129 -1.5t128.5 -1.5t42.5 -28q0 -24 -4.5 -73t-4.5 -73q0 -25 6 -72.5t6 -71.5q0 -19 -29 -19q-25 0 -74.5 2.5t-74.5 2.5q-22 0 -65 -3t-65 -3q-26 0 -26 25q0 21 3 63t3 63q0 27 -4 80.5t-4 80.5zM81 958q0 23 28 23q29 0 87.5 -9t88.5 -9 t89.5 9t88.5 9q28 0 28 -23q0 -77 -17 -247t-17 -252q0 -70 3 -209.5t3 -209.5q0 -40 -25 -40t-76.5 4t-76.5 4t-75 -4t-75 -4q-29 0 -29 52q0 68 3.5 203.5t3.5 203.5q0 155 -31 479q-1 14 -1 20zM367 1375q0 35 29 35q25 0 75 -4t75 -4q20 0 60.5 1.5t60.5 1.5 q34 0 34 -22q0 -25 -6 -74.5t-6 -74.5q0 -24 7.5 -71t7.5 -70q0 -16 -40 -21q-28 -4 -78 -3q-77 3 -61 3q-20 0 -60 -2t-60 -2q-37 0 -37 38q0 22 2 64t2 64q0 23 -2.5 70.5t-2.5 70.5z" />
<glyph unicode="&#xf0;" horiz-adv-x="1208" d="M39 492q0 218 119 359q126 150 340 150q151 0 235 -96q14 -16 20 -16q9 0 9 26q0 77 -4 230t-4 229q0 29 16 33q64 3 176 12q200 25 177 25q22 0 22 -25q0 22 -8 -66q-11 -111 -17 -284q-8 -196 -8 -446q0 -413 23 -588q2 -19 2 -24q0 -11 -15 -13q-36 -5 -265 -5 q-54 0 -62 21l-4 76q-1 8 -8 16q-6 -3 -15 -12q-108 -106 -270 -106q-211 0 -338 148q-121 141 -121 356zM401 496q0 -81 49 -137q50 -60 130 -60t134 60t54 141q0 79 -55 138.5t-133 59.5q-82 0 -130.5 -59.5t-48.5 -142.5zM557 1073q0 68 51 174q6 13 27 13q96 0 287.5 4 t287.5 4q19 0 19 -23q0 -15 -9 -42q-10 -33 -12 -42q-3 -32 -12 -96q-2 -10 -22 -10q-99 0 -297 -4t-297 -4q-23 0 -23 26z" />
<glyph unicode="&#xf1;" horiz-adv-x="1161" d="M59 910q0 16 15 22q63 7 168 22q159 31 179 31q11 0 17 -67.5t17 -67.5q-11 0 107.5 69.5t207.5 69.5q127 0 212 -60q95 -69 95 -192v-319q0 -65 1 -194.5t1 -194.5q0 -27 -28 -31t-146 -4q-126 0 -156 6t-30 41q0 47 3 142t3 143q0 37 -2 110.5t-2 110.5q0 137 -119 137 q-39 0 -91 -34q-56 -38 -56 -75v-540q0 -33 -31 -37q-35 -4 -143 -4q-117 0 -152 6q-31 5 -31 33q0 78 1 235t1 236q0 249 -39 391q-2 9 -2 15zM236 1238q11 42 103 97t140 55q42 0 110 -37t109 -37q35 0 82 35t62 35t70 -71t55 -88l-2 -8q-126 -142 -265 -142 q-39 0 -98.5 41.5t-97.5 41.5q-35 0 -73 -34t-50 -34q-28 10 -86 66t-59 80z" />
<glyph unicode="&#xf2;" horiz-adv-x="1083" d="M37 480q0 232 136 376.5t368 144.5q226 0 366 -141.5t140 -367.5q0 -228 -139.5 -370t-366.5 -142q-220 0 -362 140t-142 360zM168 1327q0 8 15 19q29 17 86 53q24 23 75 68q6 5 18 10q82 -60 197 -139q120 -69 193 -99q20 -8 20 -20q0 -11 -3 -33t-3 -33t3 -33.5 t3 -33.5q0 -19 -22 -19h-8q-130 13 -296 81q-173 72 -263 157q-15 13 -15 22zM365 492q0 -81 48 -139q51 -62 130 -62q78 0 129 62q47 58 47 139q0 79 -49 139.5t-127 60.5q-79 0 -130 -62q-48 -58 -48 -138z" />
<glyph unicode="&#xf3;" horiz-adv-x="1083" d="M37 480q0 232 136 376.5t368 144.5q226 0 366 -141.5t140 -367.5q0 -228 -139.5 -370t-366.5 -142q-220 0 -362 140t-142 360zM311 1217q0 14 21 22q49 19 190 99q61 44 185 131q6 5 20 10q7 -2 17 -10q23 -24 73 -68q28 -16 82 -51q16 -11 16 -20q0 -8 -14 -21 q-88 -83 -264 -157.5t-295 -80.5h-9q-19 -1 -19 21q0 8 2 25t2 26q0 12 -3.5 37t-3.5 37zM365 492q0 -81 48 -139q51 -62 130 -62q78 0 129 62q47 58 47 139q0 79 -49 139.5t-127 60.5q-79 0 -130 -62q-48 -58 -48 -138z" />
<glyph unicode="&#xf4;" horiz-adv-x="1083" d="M37 480q0 232 136 376.5t368 144.5q226 0 366 -141.5t140 -367.5q0 -228 -139.5 -370t-366.5 -142q-220 0 -362 140t-142 360zM177 1135q0 5 11 18l128 144q79 95 103 161q7 19 25 19h174q17 0 23 -19q21 -66 88 -147q80 -85 161 -176q-2 -3 -77 -35.5t-83 -32.5 q-51 0 -204 186l-8 -6q-18 -42 -79 -106q-68 -70 -105 -70q-1 0 -89 33q-68 26 -68 31zM365 492q0 -81 48 -139q51 -62 130 -62q78 0 129 62q47 58 47 139q0 79 -49 139.5t-127 60.5q-79 0 -130 -62q-48 -58 -48 -138z" />
<glyph unicode="&#xf5;" horiz-adv-x="1083" d="M37 480q0 232 136 376.5t368 144.5q226 0 366 -141.5t140 -367.5q0 -228 -139.5 -370t-366.5 -142q-220 0 -362 140t-142 360zM179 1238q11 42 103 97t140 55q42 0 110 -37t109 -37q35 0 82 35t62 35t70 -71t55 -88l-2 -8q-126 -142 -265 -142q-39 0 -98.5 41.5 t-97.5 41.5q-35 0 -73 -34t-50 -34q-28 10 -86 66t-59 80zM365 492q0 -81 48 -139q51 -62 130 -62q78 0 129 62q47 58 47 139q0 79 -49 139.5t-127 60.5q-79 0 -130 -62q-48 -58 -48 -138z" />
<glyph unicode="&#xf6;" horiz-adv-x="1083" d="M37 480q0 232 136 376.5t368 144.5q226 0 366 -141.5t140 -367.5q0 -228 -139.5 -370t-366.5 -142q-220 0 -362 140t-142 360zM117 1390q0 29 33 29q43 0 129 -1.5t128.5 -1.5t42.5 -28q0 -24 -4.5 -73t-4.5 -73q0 -25 6 -72.5t6 -71.5q0 -19 -29 -19q-25 0 -74.5 2.5 t-74.5 2.5q-22 0 -65 -3t-65 -3q-26 0 -26 25q0 21 3 63t3 63q0 27 -4 80.5t-4 80.5zM365 492q0 -81 48 -139q51 -62 130 -62q78 0 129 62q47 58 47 139q0 79 -49 139.5t-127 60.5q-79 0 -130 -62q-48 -58 -48 -138zM614 1387q0 35 29 35q25 0 75 -4t75 -4q20 0 60.5 1.5 t60.5 1.5q34 0 34 -22q0 -25 -6 -74.5t-6 -74.5q0 -24 7.5 -71t7.5 -70q0 -16 -40 -21q-28 -4 -78 -3q-77 3 -61 3q-20 0 -60 -2t-60 -2q-37 0 -37 38q0 22 2 64t2 64q0 23 -2.5 70.5t-2.5 70.5z" />
<glyph unicode="&#xf7;" horiz-adv-x="838" d="M70 625v126h698v-126h-698zM314 430q0 44 30.5 75.5t73.5 31.5q44 0 74.5 -31.5t30.5 -75.5t-30.5 -75t-74.5 -31q-43 0 -73.5 31t-30.5 75zM314 944q0 44 30.5 75t73.5 31q44 0 74.5 -31t30.5 -75t-30.5 -75.5t-74.5 -31.5q-43 0 -73.5 31.5t-30.5 75.5z" />
<glyph unicode="&#xf8;" horiz-adv-x="1083" d="M37 480q0 232 136 376.5t368 144.5q226 0 366 -141.5t140 -367.5q0 -228 -139.5 -370t-366.5 -142q-220 0 -362 140t-142 360zM55 61q0 10 25 33q45 43 235 251q156 171 414 457q65 77 201 224q6 7 21 15q15 -5 44 -41t29 -52q0 -13 -23 -37q-61 -68 -183 -203 q-217 -244 -662 -718q-8 -8 -26 -16q-8 2 -41.5 41t-33.5 46zM365 492q0 -81 48 -139q51 -62 130 -62q78 0 129 62q47 58 47 139q0 79 -49 139.5t-127 60.5q-79 0 -130 -62q-48 -58 -48 -138z" />
<glyph unicode="&#xf9;" horiz-adv-x="1194" d="M82 551q0 228 37 360q11 41 41 41q46 0 140 -1t140 -1q31 0 31 -26q0 -7 -2 -21q-21 -136 -21 -276q0 -174 11 -238q18 -110 131 -110q44 0 95.5 39t53.5 81q2 37 2 502q0 33 5 39q6 10 36 10q49 0 147.5 -1t147.5 -1q30 0 35 -15q2 -8 2 -24q0 -74 -7 -222t-7 -222 q0 -72 5 -216t5 -215q0 -27 -25 -34q-38 -10 -161 -10q-109 0 -152 6q-19 3 -24 24l-6 60q-5 46 -14 46q14 0 -101 -68t-209 -68q-265 0 -314 239q-22 111 -22 322zM252 1323q0 8 15 19q29 17 86 53q24 23 75 68q6 5 18 10q82 -60 197 -139q120 -69 193 -99q20 -8 20 -20 q0 -11 -3 -33t-3 -33t3 -33.5t3 -33.5q0 -19 -22 -19h-8q-130 13 -296 81q-173 72 -263 157q-15 13 -15 22z" />
<glyph unicode="&#xfa;" horiz-adv-x="1194" d="M82 551q0 228 37 360q11 41 41 41q46 0 140 -1t140 -1q31 0 31 -26q0 -7 -2 -21q-21 -136 -21 -276q0 -174 11 -238q18 -110 131 -110q44 0 95.5 39t53.5 81q2 37 2 502q0 33 5 39q6 10 36 10q49 0 147.5 -1t147.5 -1q30 0 35 -15q2 -8 2 -24q0 -74 -7 -222t-7 -222 q0 -72 5 -216t5 -215q0 -27 -25 -34q-38 -10 -161 -10q-109 0 -152 6q-19 3 -24 24l-6 60q-5 46 -14 46q14 0 -101 -68t-209 -68q-265 0 -314 239q-22 111 -22 322zM389 1213q0 14 21 22q49 19 190 99q61 44 185 131q6 5 20 10q7 -2 17 -10q23 -24 73 -68q28 -16 82 -51 q16 -11 16 -20q0 -8 -14 -21q-88 -83 -264 -157.5t-295 -80.5h-9q-19 -1 -19 21q0 8 2 25t2 26q0 12 -3.5 37t-3.5 37z" />
<glyph unicode="&#xfb;" horiz-adv-x="1194" d="M82 551q0 228 37 360q11 41 41 41q46 0 140 -1t140 -1q31 0 31 -26q0 -7 -2 -21q-21 -136 -21 -276q0 -174 11 -238q18 -110 131 -110q44 0 95.5 39t53.5 81q2 37 2 502q0 33 5 39q6 10 36 10q49 0 147.5 -1t147.5 -1q30 0 35 -15q2 -8 2 -24q0 -74 -7 -222t-7 -222 q0 -72 5 -216t5 -215q0 -27 -25 -34q-38 -10 -161 -10q-109 0 -152 6q-19 3 -24 24l-6 60q-5 46 -14 46q14 0 -101 -68t-209 -68q-265 0 -314 239q-22 111 -22 322zM259 1135q0 5 11 18l128 144q79 95 103 161q7 19 25 19h174q17 0 23 -19q21 -66 88 -147q80 -85 161 -176 q-2 -3 -77 -35.5t-83 -32.5q-51 0 -204 186l-8 -6q-18 -42 -79 -106q-68 -70 -105 -70q-1 0 -89 33q-68 26 -68 31z" />
<glyph unicode="&#xfc;" horiz-adv-x="1194" d="M82 551q0 228 37 360q11 41 41 41q46 0 140 -1t140 -1q31 0 31 -26q0 -7 -2 -21q-21 -136 -21 -276q0 -174 11 -238q18 -110 131 -110q44 0 95.5 39t53.5 81q2 37 2 502q0 33 5 39q6 10 36 10q49 0 147.5 -1t147.5 -1q30 0 35 -15q2 -8 2 -24q0 -74 -7 -222t-7 -222 q0 -72 5 -216t5 -215q0 -27 -25 -34q-38 -10 -161 -10q-109 0 -152 6q-19 3 -24 24l-6 60q-5 46 -14 46q14 0 -101 -68t-209 -68q-265 0 -314 239q-22 111 -22 322zM211 1365q0 29 33 29q43 0 129 -1.5t128.5 -1.5t42.5 -28q0 -24 -4.5 -73t-4.5 -73q0 -25 6 -72.5t6 -71.5 q0 -19 -29 -19q-25 0 -74.5 2.5t-74.5 2.5q-22 0 -65 -3t-65 -3q-26 0 -26 25q0 21 3 63t3 63q0 27 -4 80.5t-4 80.5zM708 1362q0 35 29 35q25 0 75 -4t75 -4q20 0 60.5 1.5t60.5 1.5q34 0 34 -22q0 -25 -6 -74.5t-6 -74.5q0 -24 7.5 -71t7.5 -70q0 -16 -40 -21 q-28 -4 -78 -3q-77 3 -61 3q-20 0 -60 -2t-60 -2q-37 0 -37 38q0 22 2 64t2 64q0 23 -2.5 70.5t-2.5 70.5z" />
<glyph unicode="&#xfd;" horiz-adv-x="1102" d="M47 709q0 36 2 108.5t2 108.5q0 26 33 26q51 0 154.5 -3t154.5 -3q21 0 21 -31q0 -28 -3 -84.5t-3 -84.5q0 -126 4 -171q3 -35 60 -130q60 -99 87 -99q23 0 78 98q51 93 55 125q10 88 10 191q0 27 -5 82t-5 83q0 19 21 19q51 0 152.5 4t152.5 4q26 0 35 -26 q14 -46 14 -213q0 -194 -12 -236q-15 -50 -219 -362q-32 -49 -165 -227q-147 -196 -167 -207q-24 -15 -307 -15q-43 0 -58 10q-13 41 -33 97q-16 35 -32 71q-23 52 -23 69q0 19 17 19q278 0 278 127q0 11 -136 199q-141 193 -155 244q-8 29 -8 207zM315 1229q0 14 21 22 q49 19 190 99q61 44 185 131q6 5 20 10q7 -2 17 -10q23 -24 73 -68q28 -16 82 -51q16 -11 16 -20q0 -8 -14 -21q-88 -83 -264 -157.5t-295 -80.5h-9q-19 -1 -19 21q0 8 2 25t2 26q0 12 -3.5 37t-3.5 37z" />
<glyph unicode="&#xfe;" horiz-adv-x="1233" d="M85 1395q0 16 32 18q21 1 174 15q107 10 174 10q18 0 18 -33q0 -39 -5 -103q-6 -79 -7 -104q-4 -99 -4 -270q0 -31 15 -31q8 0 16 8q73 78 217 78q217 0 347 -143q126 -138 126 -359q0 -214 -126 -355q-130 -146 -341 -146q-132 0 -223 67q-14 10 -22 10q-13 0 -13 -31 q0 -51 5 -153.5t5 -153.5q0 -32 -33 -32l-204 -1q-69 0 -89 5q-30 7 -30 37q0 95 1 324q1 151 1 323v123q0 238 -10 540q-6 171 -23 346zM467 483q0 -85 44 -141q47 -61 130 -61q176 0 176 202q0 80 -49 140q-53 63 -131 63q-80 0 -128 -63q-42 -57 -42 -140z" />
<glyph unicode="&#xff;" horiz-adv-x="1102" d="M47 709q0 36 2 108.5t2 108.5q0 26 33 26q51 0 154.5 -3t154.5 -3q21 0 21 -31q0 -28 -3 -84.5t-3 -84.5q0 -126 4 -171q3 -35 60 -130q60 -99 87 -99q23 0 78 98q51 93 55 125q10 88 10 191q0 27 -5 82t-5 83q0 19 21 19q51 0 152.5 4t152.5 4q26 0 35 -26 q14 -46 14 -213q0 -194 -12 -236q-15 -50 -219 -362q-32 -49 -165 -227q-147 -196 -167 -207q-24 -15 -307 -15q-43 0 -58 10q-13 41 -33 97q-16 35 -32 71q-23 52 -23 69q0 19 17 19q278 0 278 127q0 11 -136 199q-141 193 -155 244q-8 29 -8 207zM129 1373q0 29 33 29 q43 0 129 -1.5t128.5 -1.5t42.5 -28q0 -24 -4.5 -73t-4.5 -73q0 -25 6 -72.5t6 -71.5q0 -19 -29 -19q-25 0 -74.5 2.5t-74.5 2.5q-22 0 -65 -3t-65 -3q-26 0 -26 25q0 21 3 63t3 63q0 27 -4 80.5t-4 80.5zM626 1370q0 35 29 35q25 0 75 -4t75 -4q20 0 60.5 1.5t60.5 1.5 q34 0 34 -22q0 -25 -6 -74.5t-6 -74.5q0 -24 7.5 -71t7.5 -70q0 -16 -40 -21q-28 -4 -78 -3q-77 3 -61 3q-20 0 -60 -2t-60 -2q-37 0 -37 38q0 22 2 64t2 64q0 23 -2.5 70.5t-2.5 70.5z" />
<glyph unicode="&#x152;" horiz-adv-x="2138" d="M55 700q0 315 199 522.5t514 207.5q73 0 161 -22q98 -25 150 -62q-1 57 33 57q71 0 213 -4t213 -4q73 0 220 4t220 4q51 0 60 -39q4 -20 15 -138.5t11 -142.5q0 -21 -20 -21q-6 0 -21 1q-268 22 -499 22q-53 0 -64 -25q-6 -12 -6 -77q0 -68 20 -90q17 -19 65 -19 q11 0 40 1.5t47 1.5q125 0 264 7q13 1 60 5q38 4 61 4q24 0 24 -23q0 22 -18 -153q-8 -81 -8 -160q0 -20 -29 -20q-1 0 -90 10q-57 6 -275 6h-112q-41 0 -47 -20q-2 -5 -2 -62q0 -81 12 -102q20 -35 129 -41h144q56 0 167.5 9.5t166.5 9.5q22 0 22 -36q0 -43 -17 -158 q-18 -124 -32 -149q-11 -19 -33 -19q-9 0 -31 3q-72 10 -426 10q-74 0 -223 1t-223 1q-33 0 -33 59q-126 -86 -309 -86q-314 0 -514 208q-199 205 -199 519zM434 700q0 -155 91 -257q95 -105 249 -105q159 0 251 103q89 100 89 261q0 160 -90 260q-93 105 -250 105 q-143 0 -243 -113q-97 -108 -97 -254z" />
<glyph unicode="&#x153;" horiz-adv-x="1696" d="M37 486q0 235 133 381q137 151 371 151q187 0 319 -103q11 -8 19 -8t20 8q151 101 309 101q192 0 328 -141q133 -139 133 -332q0 -102 -65 -115q-15 -3 -212 -22q-118 -13 -354 -31q14 -64 88 -99q61 -28 136 -28q88 0 179 48l76 48q21 -10 70 -102.5t49 -116.5 q0 -7 -14 -23q-120 -131 -379 -131q-111 0 -185 25q-64 21 -163 84q-4 2 -8 2q-5 0 -16 -4.5t-15 -5.5q-134 -97 -315 -97q-223 0 -363.5 143.5t-140.5 367.5zM365 498q0 -81 48 -139q51 -62 130 -62q78 0 129 62q47 58 47 139q0 79 -49 139.5t-127 60.5q-79 0 -130 -62 q-48 -58 -48 -138zM1022 592q0 -27 28 -27q80 0 236 23q33 5 33 16q0 62 -44 109t-105 47q-63 0 -105.5 -51.5t-42.5 -116.5z" />
<glyph unicode="&#x178;" horiz-adv-x="1272" d="M31 1370q0 33 20 33q61 0 185 -5t186 -5q23 0 23 -15q0 -51 -4.5 -153.5t-4.5 -153.5q0 -30 88 -150q70 -94 115 -145q41 48 109 144q86 120 86 145q0 50 -7.5 151.5t-7.5 151.5q0 21 9 24h25q60 0 180.5 5.5t181.5 5.5q20 0 20 -43q0 -53 2 -159.5t2 -160.5 q0 -43 -16 -75q-131 -259 -357 -545q-32 -42 -32 -76q0 -53 6 -159t6 -158q0 -18 -8 -22q-2 -1 -27 -5q-36 -6 -180 -6q-145 0 -185 6q-28 4 -28 29q0 53 9 161.5t9 162.5q0 32 -24 69q-121 171 -346 524q-23 39 -23 64q0 60 -6 180t-6 180zM217 1741q0 29 33 29 q43 0 129 -1.5t128.5 -1.5t42.5 -28q0 -24 -4.5 -73t-4.5 -73q0 -25 6 -72.5t6 -71.5q0 -19 -29 -19q-25 0 -74.5 2.5t-74.5 2.5q-22 0 -65 -3t-65 -3q-26 0 -26 25q0 21 3 63t3 63q0 27 -4 80.5t-4 80.5zM714 1738q0 35 29 35q25 0 75 -4t75 -4q20 0 60.5 1.5t60.5 1.5 q34 0 34 -22q0 -25 -6 -74.5t-6 -74.5q0 -24 7.5 -71t7.5 -70q0 -16 -40 -21q-28 -4 -78 -3q-77 3 -61 3q-20 0 -60 -2t-60 -2q-37 0 -37 38q0 22 2 64t2 64q0 23 -2.5 70.5t-2.5 70.5z" />
<glyph unicode="&#x2c6;" horiz-adv-x="758" d="M34 1131q0 5 11 18l128 144q79 95 103 161q7 19 25 19h174q17 0 23 -19q21 -66 88 -147q80 -85 161 -176q-2 -3 -77 -35.5t-83 -32.5q-51 0 -204 186l-8 -6q-18 -42 -79 -106q-68 -70 -105 -70q-1 0 -89 33q-68 26 -68 31z" />
<glyph unicode="&#x2dc;" horiz-adv-x="758" d="M25 1246q11 42 103 97t140 55q42 0 110 -37t109 -37q35 0 82 35t62 35t70 -71t55 -88l-2 -8q-126 -142 -265 -142q-39 0 -98.5 41.5t-97.5 41.5q-35 0 -73 -34t-50 -34q-28 10 -86 66t-59 80z" />
<glyph unicode="&#x2000;" horiz-adv-x="940" />
<glyph unicode="&#x2001;" horiz-adv-x="1880" />
<glyph unicode="&#x2002;" horiz-adv-x="940" />
<glyph unicode="&#x2003;" horiz-adv-x="1880" />
<glyph unicode="&#x2004;" horiz-adv-x="626" />
<glyph unicode="&#x2005;" horiz-adv-x="470" />
<glyph unicode="&#x2006;" horiz-adv-x="313" />
<glyph unicode="&#x2007;" horiz-adv-x="313" />
<glyph unicode="&#x2008;" horiz-adv-x="235" />
<glyph unicode="&#x2009;" horiz-adv-x="376" />
<glyph unicode="&#x200a;" horiz-adv-x="104" />
<glyph unicode="&#x2010;" horiz-adv-x="870" d="M72 467q0 26 34 145q33 113 48 146q7 16 26 16q39 0 117 -4t117 -4q82 0 271 24q99 13 93 13q21 0 21 -33q0 -31 -14 -81q-12 -40 -23 -81q-4 -50 -19 -145q-3 -14 -24 -14q-38 0 -114.5 1t-115.5 1q-105 0 -282 -19q-10 -1 -54 -8q-35 -6 -55 -6q-26 0 -26 49z" />
<glyph unicode="&#x2011;" horiz-adv-x="870" d="M72 467q0 26 34 145q33 113 48 146q7 16 26 16q39 0 117 -4t117 -4q82 0 271 24q99 13 93 13q21 0 21 -33q0 -31 -14 -81q-12 -40 -23 -81q-4 -50 -19 -145q-3 -14 -24 -14q-38 0 -114.5 1t-115.5 1q-105 0 -282 -19q-10 -1 -54 -8q-35 -6 -55 -6q-26 0 -26 49z" />
<glyph unicode="&#x2012;" horiz-adv-x="870" d="M72 467q0 26 34 145q33 113 48 146q7 16 26 16q39 0 117 -4t117 -4q82 0 271 24q99 13 93 13q21 0 21 -33q0 -31 -14 -81q-12 -40 -23 -81q-4 -50 -19 -145q-3 -14 -24 -14q-38 0 -114.5 1t-115.5 1q-105 0 -282 -19q-10 -1 -54 -8q-35 -6 -55 -6q-26 0 -26 49z" />
<glyph unicode="&#x2013;" horiz-adv-x="1264" d="M57 465q0 36 17 141q3 66 10 144q8 20 29 20q81 0 244.5 -4t244.5 -4q98 0 293 4t293 4q24 0 24 -25q0 -16 -10.5 -153.5t-11.5 -142.5q1 -18 -17 -18q-93 0 -279 4.5t-280 4.5q-88 0 -265.5 -6t-266.5 -6q-25 0 -25 37z" />
<glyph unicode="&#x2014;" horiz-adv-x="1774" d="M74 465q0 19 22 141q4 69 10 144q9 20 39 20q119 0 357.5 -4t357.5 -4q136 0 407.5 4t407.5 4q32 0 32 -27q0 -14 -28 -294q-5 -18 -24 -18q-131 0 -394 4.5t-395 4.5q-126 0 -379.5 -6t-380.5 -6q-32 0 -32 37z" />
<glyph unicode="&#x2018;" horiz-adv-x="567" d="M88 1024q0 112 63 242q59 120 146 204q20 20 32 20q10 0 21 -13q6 -8 62 -56q50 -43 50 -48q0 10 -51 -68.5t-51 -163.5q0 -68 74.5 -144.5t74.5 -78.5q0 -17 -50 -57l-66 -50q-30 -28 -61 -57q-51 -47 -58 -47q-10 0 -28 14q-158 123 -158 303z" />
<glyph unicode="&#x2019;" horiz-adv-x="567" d="M58 1264q0 16 50 56l66 50q31 29 61 57q51 47 58 47q10 0 29 -14q157 -123 157 -303q0 -113 -63 -242q-58 -119 -146 -204q-20 -20 -32 -20q-10 0 -21 14q-6 7 -62 55q-50 43 -50 48q0 -10 51 68.5t51 163.5q0 65 -74.5 142.5t-74.5 81.5z" />
<glyph unicode="&#x201a;" horiz-adv-x="567" d="M58 305q0 9 12 23q36 28 104 84q31 29 92 88q15 13 25 13q11 0 28 -13q158 -123 158 -305q0 -117 -59 -242q-58 -121 -148 -201q-21 -19 -32 -19q-9 0 -21 13q-6 7 -62 55q-50 44 -50 49q0 -11 51 68t51 164q0 65 -74.5 142.5t-74.5 80.5z" />
<glyph unicode="&#x201c;" horiz-adv-x="842" d="M59 1028q0 239 215 440q21 20 33 20q9 0 21 -13q27 -32 98 -89q11 -9 11 -15q0 11 -49.5 -69.5t-49.5 -164.5q0 -64 47 -125q0 119 49 213q111 212 174 212q10 0 21 -12q38 -42 104 -96q12 -9 12 -17q0 8 -43 -62.5t-43 -127.5q0 -67 71 -145t71 -77q0 -14 -108 -109.5 t-120 -95.5q-9 0 -30 14q-81 51 -119 141q-103 -77 -148 -129q-14 -17 -24 -17t-29 15q-164 127 -164 309z" />
<glyph unicode="&#x201d;" horiz-adv-x="842" d="M45 1267q0 14 108 109.5t120 95.5q9 0 30 -14q81 -52 119 -141q103 77 147 129q15 16 24 16q11 0 30 -14q163 -127 163 -315q0 -233 -215 -435q-20 -19 -32 -19q-9 0 -21 13q-27 31 -98 88q-11 9 -11 16q0 -11 49.5 69.5t49.5 164.5q0 64 -47 125q0 -119 -49 -213 q-112 -213 -175 -213q-9 0 -20 12q-38 42 -104 97q-12 9 -12 17q0 -8 42.5 62.5t42.5 126.5q0 67 -70.5 145z" />
<glyph unicode="&#x201e;" horiz-adv-x="842" d="M45 333q0 14 108 109.5t120 95.5q9 0 30 -14q81 -52 119 -141q103 77 147 129q15 17 24 17q11 0 30 -15q161 -126 161 -321q0 -229 -213 -429q-20 -19 -32 -19q-9 0 -21 13q-27 32 -98 88q-11 9 -11 16q0 -11 49.5 69.5t49.5 164.5q0 64 -47 125q0 -119 -49 -213 q-112 -212 -175 -212q-9 0 -20 11q-38 43 -104 97q-12 9 -12 17q0 -8 42.5 62.5t42.5 127.5q0 67 -70.5 145t-70.5 77z" />
<glyph unicode="&#x2022;" horiz-adv-x="1196" d="M88 592q0 197 155 360.5t351 163.5q226 0 367 -148.5t141 -375.5q0 -196 -156.5 -359t-351.5 -163q-224 0 -366 150q-140 147 -140 372z" />
<glyph unicode="&#x2026;" horiz-adv-x="1645" d="M61 201q0 89 62.5 153t150.5 64q90 0 152.5 -64t62.5 -153q0 -90 -62.5 -154.5t-152.5 -64.5q-88 0 -150.5 65t-62.5 154zM612 201q0 90 62 153.5t151 63.5q90 0 152.5 -64t62.5 -153q0 -90 -62.5 -154.5t-152.5 -64.5q-89 0 -151 64.5t-62 154.5zM1157 201 q0 90 62 153.5t151 63.5q90 0 151.5 -63.5t61.5 -153.5t-61.5 -154.5t-151.5 -64.5q-89 0 -151 64.5t-62 154.5z" />
<glyph unicode="&#x202f;" horiz-adv-x="376" />
<glyph unicode="&#x2039;" horiz-adv-x="676" d="M70 457q0 20 3 61t3 62q0 18 -3 54t-3 54q0 23 26 35q213 94 408 240q18 13 26 13q7 0 11 -13q5 -23 51 -112q44 -85 44 -90q0 -36 -143 -111q-71 -36 -143 -72q71 -36 141 -71q139 -76 139 -118q0 -2 -43 -93q-45 -94 -50 -114q-4 -13 -12 -13q-4 0 -102 71 q-105 77 -116 84q-18 10 -211 98q-26 12 -26 35z" />
<glyph unicode="&#x203a;" horiz-adv-x="676" d="M42 761q0 6 43 91q44 90 50 111q4 13 12 13t27 -13q199 -145 408 -240q26 -12 26 -35q0 -18 -3 -55t-3 -55q0 -21 3 -61t3 -60q0 -23 -26 -35q-158 -71 -210 -102q-68 -39 -192 -136q-20 -15 -28 -15q-7 0 -11 13q-5 21 -49 113t-44 95q0 38 113 104q87 51 150 73 q8 2 16 11l-147 75q-138 71 -138 108z" />
<glyph unicode="&#x205f;" horiz-adv-x="470" />
<glyph unicode="&#x20ac;" horiz-adv-x="1047" d="M90 444q0 8 5 19.5t5 20.5q0 66 2 71q6 13 23 13q34 0 74 -1q-1 20 -1 41v26q-50 -1 -90 -1q-18 0 -18 28q0 -9 8 64q1 24 4 54q6 13 23 13q42 0 95 -1q53 203 209 323q161 122 385 122q122 0 122 -35q0 -47 -2.5 -142.5t-2.5 -142.5q0 -16 -25 -16q-12 0 -44.5 8 t-50.5 8q-161 0 -235 -132q40 1 171 3q106 2 170 2q17 0 17 -16q0 -65 -13 -130q-2 -13 -14 -13q-1 0 -8 1q-79 11 -364 9q-1 -16 -1 -32q0 -25 3 -48q59 0 191 3q124 2 191 2q17 0 17 -16q0 -20 -15 -120q-3 -11 -12 -10h-10q-157 6 -322 8q76 -136 241 -136q27 0 65 8.5 t39 8.5q12 0 12 -23v-262q0 -53 -129 -53q-228 0 -385 124q-151 120 -201 327q-63 -2 -111 -2q-18 0 -18 25z" />
<glyph unicode="&#x2122;" horiz-adv-x="1276" d="M10 1261q0 66 23 150q1 6 16 6q36 0 109.5 -5t109.5 -5q37 0 111 3t110 3q13 0 13 -4q0 -12 -2 -35t-2 -35t3 -35.5t3 -35.5q0 -7 -8 -7q10 0 -146 7q-2 -40 -2 -142q0 -55 4 -164.5t4 -164.5q0 -13 -8 -13q-16 0 -46.5 2t-45.5 2q-14 0 -42 -2t-42 -2t-14 13 q0 55 5 164.5t5 164.5q0 24 -1 70.5t-1 69.5q-115 -9 -150 -9q-6 1 -6 4zM543 797q0 48 4 146t4 147q0 50 -4 152t-4 153q0 16 14 16q26 0 76.5 4t75.5 4q16 0 88 -158t77 -159q46 100 140 299q7 14 18 14h154q15 0 15 -7q0 -53 -3.5 -159t-3.5 -159q0 -49 4 -147t4 -146 q0 -13 -5 -13h-169q-14 0 -14 17q0 46 3 139t3 139q1 13 -5 13q-4 0 -5 -2q-51 -146 -111 -306q-9 -12 -27 -12q-22 0 -32 12t-55.5 156t-51.5 150q-1 1 -4 2q-4 0 -4 -13q0 -46 3 -139t3 -139q0 -17 -14 -17t-42 2t-42 2t-42.5 -2t-42.5 -2q-5 0 -5 13z" />
<glyph unicode="&#x25fc;" horiz-adv-x="950" d="M0 0v950h950v-950h-950z" />
<glyph unicode="&#xfb01;" horiz-adv-x="1233" d="M24 888q0 37 38 45q35 3 69 5q-5 80 -5 129q0 189 67 266q122 144 434 144q62 0 203 -23q168 -27 168 -55q0 -7 -39.5 -120t-45.5 -124q-8 -15 -22 -14h-8q-2 0 -133 19q-78 11 -134 11q-79 0 -92 -14q-36 -40 -36 -161q0 -27 4 -50q109 -6 289 -6h173q30 0 88 5t86 5 q25 0 25 -20q0 -4 -2 -19q-23 -195 -23 -452q0 -73 3.5 -217.5t3.5 -216.5q0 -21 -25 -25q-40 -6 -154 -6q-119 0 -153 6q-22 4 -27 13q-2 4 -2 30q0 69 3 207.5t3 208.5q0 112 -2 174q-58 6 -127 6h-147q3 -65 6 -221q1 -56 9 -193q7 -123 7 -192q0 -31 -28 -35 q-32 -4 -170 -4q-113 0 -147 6t-34 41v555q0 29 -39 29q-8 0 -23.5 -1t-22.5 -1q-28 0 -29 16q-9 85 -9 249z" />
<glyph unicode="&#xfb02;" horiz-adv-x="1270" d="M24 888q0 37 38 45q34 3 69 5q-5 80 -5 129q0 188 67 266q121 144 434 144q75 0 192 -20q146 -23 178 -56q30 0 89.5 2t89.5 2q24 0 23 -21l-1 -18q-27 -432 -27 -764q0 -273 3 -419q0 -23 3 -79q3 -51 3 -79q0 -20 -25 -25q-44 -8 -162 -8q-121 0 -153 8q-16 4 -19 7.5 t-6 19.5v43q0 89 2 266.5t2 265.5v31q-80 6 -119 6h-196q3 -66 6 -221q1 -56 9 -193q7 -123 7 -192q0 -31 -28 -35t-170 -4q-114 0 -147.5 6t-33.5 41v555q0 29 -39 29q-8 0 -23.5 -1t-22.5 -1q-27 0 -29 16q-9 80 -9 249zM488 996q0 -27 4 -50q108 -1 325 -6q-3 126 -6 213 q-98 18 -199 18q-75 0 -88 -14q-36 -40 -36 -161z" />
</font>
</defs>
</svg>
